<svg width="96" height="15" viewBox="0 0 96 15" fill="none" xmlns="http://www.w3.org/2000/svg">
<path fill-rule="evenodd" clip-rule="evenodd" d="M10.8142 4.58446H16.8839C16.771 3.7811 16.4616 3.01431 15.9807 2.34594C15.5323 1.76362 14.9423 1.29385 14.2614 0.977037C13.4776 0.622963 12.6419 0.384464 11.7829 0.269699C10.6963 0.114092 9.60017 0.0265278 8.50154 0.00756836C5.95323 0.038081 4.01872 0.415328 2.69802 1.13931C1.37732 1.86329 0.606421 2.76202 0.385335 3.83551C0.188975 4.90484 0.341699 5.75781 0.82169 6.38609C1.39659 7.06708 2.14893 7.59221 3.00347 7.90894C4.03689 8.32019 5.1157 8.61889 6.2194 8.79936C7.42374 9.01156 8.62809 9.21544 9.83243 9.44428C10.2708 9.51379 10.6744 9.71495 10.9844 10.0185C11.085 10.1147 11.1561 10.2354 11.1899 10.3674C11.2238 10.4994 11.2191 10.6378 11.1764 10.7674C11.0493 11.0569 10.8125 11.2902 10.5131 11.4207C10.0813 11.6229 9.60123 11.7133 9.12117 11.6828C8.49426 11.6793 7.87272 11.5723 7.28411 11.3666C6.99454 11.2742 6.73285 11.1161 6.52154 10.9059C6.31023 10.6957 6.15563 10.4397 6.07104 10.1599H0.00134213C-0.0211745 10.9604 0.240188 11.7447 0.743146 12.386C1.26944 13.0292 1.94842 13.544 2.7242 13.888C3.63837 14.2893 4.60589 14.5693 5.59978 14.7202C6.70525 14.9013 7.82496 14.9918 8.94662 14.9906C10.0327 14.9926 11.1157 14.8796 12.1757 14.6536C13.1422 14.4575 14.075 14.1325 14.9465 13.6883C15.6983 13.3059 16.35 12.7669 16.8534 12.1114C17.2777 11.5565 17.5089 10.8888 17.5143 10.2021C17.5198 9.51539 17.2993 8.84436 16.8839 8.28342C16.4851 7.78138 15.9738 7.37056 15.3872 7.08094C14.6604 6.70762 13.89 6.41714 13.092 6.21549C12.1076 5.95392 11.11 5.74006 10.103 5.57473C9.58807 5.48735 9.01208 5.39581 8.35755 5.30012C7.82645 5.23384 7.30424 5.11389 6.79976 4.94229C6.58552 4.88276 6.3982 4.75685 6.2674 4.58446C6.22234 4.51357 6.19852 4.43226 6.19852 4.34937C6.19852 4.26648 6.22234 4.18517 6.2674 4.11429C6.39182 3.92985 6.5711 3.78499 6.7823 3.69821C7.10011 3.56188 7.44214 3.48423 7.79028 3.46936C8.48656 3.41737 9.18706 3.47643 9.86297 3.64411C10.1046 3.68671 10.3261 3.80026 10.4967 3.96887C10.6673 4.13748 10.7783 4.35271 10.8142 4.58446V4.58446Z" fill="white"/>
<path fill-rule="evenodd" clip-rule="evenodd" d="M30.154 5.83247H36.1102C36.0379 5.25049 35.8823 4.68071 35.6477 4.13902C35.3296 3.40112 34.8333 2.74531 34.199 2.22505C33.336 1.52884 32.3404 0.997673 31.2667 0.660586C29.6741 0.176653 28.0065 -0.044274 26.3359 0.00733883C25.0859 0.00136999 23.8405 0.151037 22.6312 0.452545C21.5291 0.720872 20.4919 1.18995 19.5767 1.83393C18.699 2.46573 17.989 3.28521 17.504 4.2264C16.9626 5.31161 16.698 6.50351 16.7317 7.70483C16.6873 8.69899 16.8959 9.68862 17.3396 10.5892C17.7834 11.4898 18.4491 12.2747 19.28 12.8767C20.9789 14.125 23.3876 14.7768 26.506 14.8323C27.7822 14.8859 29.0597 14.7612 30.298 14.462C31.3782 14.2003 32.4088 13.7792 33.3525 13.2137C34.1784 12.7227 34.897 12.0841 35.4688 11.3331C35.9832 10.6585 36.3009 9.86602 36.3895 9.03629H30.154C30.0598 9.45043 29.8738 9.84057 29.6085 10.1805C29.3754 10.4649 29.0882 10.7048 28.762 10.8879C28.4485 11.0574 28.108 11.1769 27.754 11.2415C27.4232 11.3024 27.0873 11.3345 26.7504 11.3372C26.0205 11.3663 25.301 11.1644 24.7039 10.763C24.1779 10.3889 23.7641 9.88956 23.5039 9.31507C23.2401 8.72364 23.1121 8.08521 23.1287 7.4427C23.1385 6.79002 23.2869 6.146 23.565 5.54954C23.8174 4.98794 24.208 4.49267 24.7039 4.10573C25.2261 3.7133 25.8764 3.50857 26.541 3.52738H27.2217C27.5535 3.54158 27.8801 3.61202 28.186 3.73542C28.5786 3.89375 28.9356 4.12259 29.2376 4.40947C29.6426 4.8186 29.9545 5.30305 30.154 5.83247V5.83247Z" fill="white"/>
<path fill-rule="evenodd" clip-rule="evenodd" d="M40.1071 0.48584L33.1647 14.5702H39.662L40.286 12.7436H46.5346L47.1586 14.5702H53.6428L46.7702 0.48584H40.1071ZM41.4991 9.81021L43.3667 5.23332L45.2604 9.81021H41.4991Z" fill="white"/>
<path fill-rule="evenodd" clip-rule="evenodd" d="M51.5397 0.48584V14.5743H57.6137V9.35668L57.4348 7.05159L64.098 14.5743H70.172V0.48584H63.8623V5.52874L64.098 7.81302L57.4348 0.48584H51.5397Z" fill="white"/>
<path fill-rule="evenodd" clip-rule="evenodd" d="M71.3546 0.48584V14.5743H77.7821V0.48584H71.3546Z" fill="white"/>
<path fill-rule="evenodd" clip-rule="evenodd" d="M82.4731 0.48584L75.5306 14.5702H82.0367L82.6607 12.7436H88.9093L89.5115 14.5702H96.0001L89.1275 0.48584H82.4731ZM83.865 9.81021L85.7326 5.23332L87.6264 9.81021H83.865Z" fill="white"/>
</svg>
