<svg width="121" height="28" viewBox="0 0 121 28" fill="none" xmlns="http://www.w3.org/2000/svg">
<path d="M114.125 21H116.537V10.0549H120.841V8.01428H109.822V10.0549H114.125V21Z" fill="white"/>
<path d="M95.329 20.0705C96.4039 20.6416 97.61 20.9271 98.9474 20.9271C100.285 20.9271 101.491 20.6416 102.566 20.0705C103.641 19.487 104.484 18.6862 105.097 17.6682C105.709 16.6502 106.015 15.5019 106.015 14.2231H103.559C103.559 15.0922 103.359 15.8805 102.959 16.5881C102.56 17.2834 102.01 17.8296 101.31 18.2269C100.61 18.6117 99.8223 18.8042 98.9474 18.8042C98.0725 18.8042 97.2851 18.6117 96.5851 18.2269C95.8852 17.8296 95.3353 17.2834 94.9353 16.5881C94.5354 15.8805 94.3354 15.0922 94.3354 14.2231H91.8794C91.8794 15.4894 92.1856 16.6378 92.798 17.6682C93.4105 18.6862 94.2541 19.487 95.329 20.0705Z" fill="white"/>
<path d="M92.7957 10.7826C92.1833 11.8006 91.8771 12.9489 91.8771 14.2275L94.3331 14.2275C94.3331 13.3585 94.533 12.5702 94.933 11.8626C95.3329 11.1674 95.8829 10.6212 96.5828 10.224C97.2827 9.83911 98.0702 9.64669 98.9451 9.64669L98.9451 7.52386C97.6077 7.52386 96.4016 7.80939 95.3267 8.38044C94.2518 8.96391 93.4082 9.76463 92.7957 10.7826Z" fill="white"/>
<path d="M5.76937 21.1858C9.33117 21.1858 11.0193 19.4049 11.0193 17.3271C11.0193 12.5595 3.32063 14.359 3.32063 11.5949C3.32063 10.6117 4.13688 9.83252 6.14039 9.83252C7.272 9.83252 8.55203 10.1664 9.72074 10.8528L10.4813 8.97918C9.34972 8.23713 7.71723 7.82901 6.15894 7.82901C2.59714 7.82901 0.927552 9.60991 0.927552 11.7062C0.927552 16.5294 8.64478 14.6929 8.64478 17.4941C8.64478 18.4588 7.79143 19.1822 5.76937 19.1822C4.17398 19.1822 2.52294 18.5886 1.48408 17.7538L0.649286 19.6275C1.72525 20.555 3.74731 21.1858 5.76937 21.1858ZM21.7215 8.01452H16.3788V21.0002H18.7905V17.2529H21.7215C25.1349 17.2529 27.2497 15.4906 27.2497 12.6337C27.2497 9.75832 25.1349 8.01452 21.7215 8.01452ZM21.6102 15.2123H18.7905V10.0551H21.6102C23.725 10.0551 24.8195 11.0012 24.8195 12.6337C24.8195 14.2662 23.725 15.2123 21.6102 15.2123ZM32.6262 21.0002H35.0378V8.01452H32.6262V21.0002ZM50.664 8.01452V16.8077L43.5033 8.01452H41.5184V21.0002H43.9115V12.2071L51.0721 21.0002H53.0571V8.01452H50.664ZM63.5305 21.1858C67.0923 21.1858 68.7804 19.4049 68.7804 17.3271C68.7804 12.5595 61.0817 14.359 61.0817 11.5949C61.0817 10.6117 61.898 9.83252 63.9015 9.83252C65.0331 9.83252 66.3131 10.1664 67.4818 10.8528L68.2424 8.97918C67.1108 8.23713 65.4783 7.82901 63.92 7.82901C60.3582 7.82901 58.6887 9.60991 58.6887 11.7062C58.6887 16.5294 66.4059 14.6929 66.4059 17.4941C66.4059 18.4588 65.5525 19.1822 63.5305 19.1822C61.9351 19.1822 60.284 18.5886 59.2452 17.7538L58.4104 19.6275C59.4863 20.555 61.5084 21.1858 63.5305 21.1858ZM83.267 8.01452V13.3758H76.5516V8.01452H74.1399V21.0002H76.5516V15.4349H83.267V21.0002H85.6787V8.01452H83.267Z" fill="white"/>
</svg>
