<svg width="126" height="27" viewBox="0 0 126 27" fill="none" xmlns="http://www.w3.org/2000/svg">
<path d="M29.8469 20.3664C29.8469 21.6147 29.5305 22.525 28.8977 23.0972C28.2649 23.6695 27.2288 23.9556 25.7894 23.9556C25.0512 23.9578 24.3148 23.8838 23.5919 23.7347C22.985 23.6149 22.3891 23.4451 21.8102 23.2272L21.3677 25.3331C22.0101 25.5464 22.6675 25.7119 23.3344 25.8281C24.1283 25.9706 24.9336 26.0403 25.7402 26.0364C27.9252 26.0364 29.5552 25.5684 30.6302 24.6322C31.7052 23.6961 32.2427 22.1875 32.2427 20.1064V8.03807C31.6705 7.89918 30.9638 7.74724 30.1227 7.58224C29.1479 7.4054 28.1584 7.32196 27.1677 7.33307C26.1444 7.33307 25.2255 7.50196 24.4111 7.83974C23.6291 8.1567 22.9241 8.63748 22.3435 9.24974C21.7703 9.86297 21.3318 10.5894 21.0561 11.3822C20.7528 12.256 20.6031 13.1757 20.6136 14.1006C20.6136 15.2284 20.7697 16.2006 21.0819 17.0172C21.3603 17.7788 21.7942 18.4741 22.3561 19.0589C22.8851 19.5994 23.5299 20.0128 24.2419 20.2681C24.9805 20.5314 25.7594 20.6634 26.5436 20.6581C27.3413 20.6581 28.0394 20.5497 28.6377 20.3331C29.2361 20.1164 29.6391 19.9386 29.8469 19.7997V20.3722V20.3664ZM29.8211 17.6614C29.5088 17.9047 29.0841 18.1172 28.5469 18.2989C27.976 18.4857 27.3784 18.5778 26.7777 18.5714C26.3104 18.5716 25.8472 18.4834 25.4127 18.3114C24.9662 18.1354 24.5658 17.8598 24.2419 17.5056C23.882 17.1057 23.6077 16.6363 23.436 16.1264C23.236 15.5709 23.1363 14.9042 23.1369 14.1264C23.1369 12.722 23.488 11.595 24.1902 10.7456C24.8924 9.89613 25.8938 9.47113 27.1944 9.47057C27.7464 9.46247 28.2983 9.49282 28.8461 9.5614C29.1747 9.60697 29.5003 9.67237 29.8211 9.75724V17.6639V17.6614ZM37.8836 7.6214H35.4669V21.1464H37.8836V7.6214V7.6214ZM37.7669 4.74974C38.0702 4.46418 38.2219 4.07835 38.2219 3.59224C38.2219 3.10613 38.0702 2.72029 37.7669 2.43474C37.4649 2.15869 37.0706 2.00562 36.6615 2.00562C36.2523 2.00562 35.858 2.15869 35.556 2.43474C35.2516 2.7214 35.0999 3.10724 35.1011 3.59224C35.1022 4.07724 35.2538 4.46307 35.556 4.74974C35.858 5.02578 36.2523 5.17886 36.6615 5.17886C37.0706 5.17886 37.4649 5.02578 37.7669 4.74974V4.74974ZM49.1719 7.6239C48.9636 8.4739 48.7163 9.38001 48.4302 10.3422C48.1441 11.3045 47.8408 12.2581 47.5202 13.2031C47.1991 14.1475 46.8738 15.0622 46.5444 15.9472C46.2149 16.8322 45.903 17.6211 45.6085 18.3139C45.3135 17.6206 45.0013 16.8317 44.6719 15.9472C44.3424 15.0628 44.0174 14.1481 43.6969 13.2031C43.3763 12.2586 43.0727 11.305 42.786 10.3422C42.4994 9.37946 42.2524 8.47335 42.0452 7.6239H39.4444C40.1001 10.0942 40.8947 12.5256 41.8244 14.9064C42.7344 17.2303 43.6144 19.3111 44.4644 21.1489H46.6486C47.4986 19.3117 48.3786 17.2309 49.2886 14.9064C50.218 12.5248 51.0123 10.0926 51.6677 7.6214L49.1719 7.6239Z" fill="white"/>
<path d="M52.5128 17.2316C52.7614 18.0526 53.1831 18.8107 53.7495 19.4549C54.3343 20.1007 55.0596 20.6037 55.8695 20.9249C56.7278 21.2799 57.7465 21.4577 58.9253 21.4582C59.7692 21.4677 60.6113 21.3804 61.4353 21.1982C62.172 21.0249 62.6878 20.8602 62.9828 20.7041L62.6445 18.6749C62.2211 18.8573 61.7821 19.0009 61.3328 19.1041C60.7517 19.2513 60.0365 19.3249 59.187 19.3249C57.6787 19.3249 56.5676 18.961 55.8537 18.2332C55.1398 17.5055 54.7323 16.4388 54.6312 15.0332H63.892C63.9094 14.8836 63.9175 14.733 63.9162 14.5824V14.1799C63.9162 11.856 63.4306 10.1263 62.4595 8.99073C61.4884 7.85518 60.0934 7.28573 58.2745 7.2824C57.4903 7.283 56.7133 7.43318 55.9853 7.7249C55.2391 8.02051 54.565 8.47293 54.0087 9.05157C53.4365 9.64101 52.977 10.3821 52.6303 11.2749C52.2837 12.1677 52.1101 13.2124 52.1095 14.4091C52.0996 15.3649 52.2356 16.3167 52.5128 17.2316V17.2316ZM54.6845 13.0824C54.7376 12.6113 54.847 12.1483 55.0103 11.7032C55.1668 11.2666 55.4002 10.8616 55.6995 10.5074C56.0006 10.156 56.369 9.86846 56.7829 9.66157C57.2396 9.43761 57.7434 9.32617 58.252 9.33657C59.2415 9.33657 60.0176 9.68768 60.5803 10.3899C61.1431 11.0921 61.4148 11.9896 61.3953 13.0824H54.6845ZM75.9345 19.3766C75.6093 19.3357 75.2875 19.2705 74.972 19.1816C74.7378 19.1183 74.5233 18.9974 74.3479 18.8299C74.1816 18.6556 74.0648 18.4402 74.0095 18.2057C73.9331 17.882 73.8981 17.5499 73.9053 17.2174V0.962402L71.4887 1.37907V17.6082C71.4887 18.8927 71.8006 19.8371 72.4245 20.4416C73.0484 21.046 74.1062 21.3666 75.5979 21.4032L75.9362 19.3749L75.9345 19.3766ZM80.122 7.6199H77.7053V21.1449H80.122V7.62073V7.6199ZM80.0045 4.74907C80.3079 4.46351 80.4595 4.07768 80.4595 3.59157C80.4595 3.10546 80.3079 2.71962 80.0045 2.43407C79.7026 2.15802 79.3082 2.00495 78.8991 2.00495C78.49 2.00495 78.0956 2.15802 77.7937 2.43407C77.4903 2.72074 77.3387 3.10657 77.3387 3.59157C77.3387 4.07657 77.4903 4.4624 77.7937 4.74907C78.0956 5.02512 78.49 5.17819 78.8991 5.17819C79.3082 5.17819 79.7026 5.02512 80.0045 4.74907ZM91.4095 7.62323C91.2017 8.47323 90.9548 9.37935 90.6687 10.3416C90.3826 11.3038 90.079 12.2574 89.7578 13.2024C89.4373 14.1468 89.1123 15.0616 88.7828 15.9466C88.4534 16.8316 88.1412 17.6205 87.8462 18.3132C87.5512 17.6199 87.2392 16.831 86.9103 15.9466C86.5815 15.0621 86.2562 14.1474 85.9345 13.2024C85.6134 12.258 85.3101 11.3043 85.0245 10.3416C84.739 9.37879 84.4917 8.47268 84.2828 7.62323H81.682C82.3385 10.0933 83.1331 12.5247 84.062 14.9057C84.972 17.2296 85.852 19.3105 86.702 21.1482H88.887C89.7359 19.311 90.6159 17.2302 91.527 14.9057C92.4559 12.5247 93.2505 10.0933 93.907 7.62323H91.4095Z" fill="white"/>
<path d="M94.7506 17.2316C94.9989 18.0525 95.4203 18.8106 95.9865 19.4549C96.5711 20.1009 97.2965 20.6039 98.1065 20.9249C98.9648 21.2799 99.9834 21.4577 101.162 21.4582C102.006 21.4677 102.848 21.3804 103.672 21.1982C104.409 21.0249 104.925 20.8602 105.22 20.7041L104.881 18.6749C104.458 18.8573 104.018 19.001 103.568 19.1041C102.988 19.2513 102.272 19.3249 101.422 19.3249C99.914 19.3249 98.8042 18.961 98.0931 18.2332C97.382 17.5055 96.9745 16.4388 96.8706 15.0332H106.13C106.148 14.8823 106.157 14.7303 106.156 14.5782V14.1757C106.156 11.8518 105.671 10.1221 104.7 8.98657C103.729 7.85101 102.333 7.28296 100.512 7.2824C99.728 7.283 98.9511 7.43318 98.2231 7.7249C97.4784 8.02103 96.8057 8.47342 96.2506 9.05157C95.6779 9.64101 95.2184 10.3821 94.8723 11.2749C94.5262 12.1677 94.3526 13.2124 94.3515 14.4091C94.3415 15.3649 94.4775 16.3167 94.7548 17.2316H94.7506ZM96.9256 13.0824C96.9787 12.6113 97.0881 12.1483 97.2515 11.7032C97.4079 11.2666 97.6413 10.8616 97.9406 10.5074C98.2417 10.156 98.6101 9.86846 99.024 9.66157C99.4808 9.43761 99.9845 9.32617 100.493 9.33657C101.481 9.33657 102.258 9.68768 102.821 10.3899C103.385 11.0921 103.658 11.9896 103.641 13.0824H96.9256ZM113.104 19.3766C112.779 19.3357 112.457 19.2705 112.141 19.1816C111.907 19.1183 111.693 18.9974 111.517 18.8299C111.351 18.6556 111.234 18.4402 111.179 18.2057C111.103 17.882 111.068 17.5499 111.075 17.2174V0.962402L108.658 1.37907V17.6082C108.658 18.8927 108.97 19.8371 109.594 20.4416C110.218 21.046 111.276 21.3666 112.767 21.4032L113.106 19.3749L113.104 19.3766Z" fill="white"/>
<path d="M112.844 25.621C112.958 25.6721 113.075 25.7156 113.194 25.751C113.361 25.8027 113.541 25.8502 113.741 25.8935C113.941 25.9368 114.144 25.9718 114.352 25.9977C114.55 26.023 114.75 26.0361 114.95 26.0368C115.597 26.0457 116.241 25.9581 116.862 25.7768C117.416 25.6082 117.933 25.3343 118.384 24.9702C118.864 24.5736 119.281 24.106 119.619 23.5835C120.035 22.9421 120.397 22.268 120.703 21.5677C121.587 19.5221 122.41 17.324 123.174 14.9735C123.937 12.6229 124.631 10.1738 125.257 7.62599H122.757C122.323 9.51488 121.863 11.3529 121.378 13.1402C120.893 14.9274 120.321 16.7307 119.661 18.5502C119.246 17.6663 118.847 16.7474 118.465 15.7935C118.084 14.8396 117.728 13.8857 117.399 12.9318C117.068 11.9774 116.768 11.0485 116.5 10.1452C116.233 9.24183 116.003 8.40072 115.811 7.62183H113.21C113.84 10.033 114.626 12.4005 115.564 14.7093C116.509 17.0427 117.528 19.2493 118.62 21.3293C118.187 22.2827 117.701 22.9718 117.164 23.3968C116.626 23.8218 115.88 24.0343 114.927 24.0343C114.624 24.0333 114.322 23.9938 114.029 23.9168C113.776 23.855 113.528 23.7714 113.289 23.6668L112.846 25.6177L112.844 25.621Z" fill="white"/>
<path d="M5.02173 16.6584V20.8576H8.91756V12.4709C6.7659 12.4709 5.02173 14.3451 5.02173 16.6584Z" fill="white"/>
<path d="M10.1243 12.154V20.8566C10.6361 20.8566 11.1428 20.7557 11.6157 20.5599C12.0885 20.364 12.5181 20.0769 12.8799 19.7149C13.2418 19.353 13.5288 18.9234 13.7246 18.4505C13.9203 17.9776 14.021 17.4708 14.0209 16.9591V7.96655C11.8684 7.96655 10.1243 9.84072 10.1243 12.154Z" fill="white"/>
<path d="M2.14976 17.0569C2.65367 17.0569 3.13694 17.2571 3.49326 17.6134C3.84958 17.9697 4.04976 18.453 4.04976 18.9569V20.8569H2.14976C1.64584 20.8569 1.16257 20.6567 0.806253 20.3004C0.449934 19.9441 0.249756 19.4608 0.249756 18.9569C0.249756 18.453 0.449934 17.9697 0.806253 17.6134C1.16257 17.2571 1.64584 17.0569 2.14976 17.0569Z" fill="white"/>
</svg>
