<svg width="123" height="17" viewBox="0 0 123 17" fill="none" xmlns="http://www.w3.org/2000/svg">
<path d="M14.4936 2.74752L12.4764 4.84086C12.0021 4.3207 10.6425 3.09007 8.37239 3.09007C5.26752 3.09007 3.33884 5.41178 3.33884 8.36783C3.33884 11.622 5.51414 13.6266 8.37239 13.6266C10.5983 13.6266 11.844 12.7131 12.1792 12.3769V10.4231H9.16283V7.71445H15.1702V14.0135C13.4692 15.4725 11.5658 16.627 8.23327 16.627C3.74354 16.627 0 13.3982 0 8.36783C0 3.79419 3.40207 0.108643 8.23327 0.108643C11.5658 0.108643 13.6778 1.77063 14.4936 2.74752Z" fill="white"/>
<path d="M29.7858 4.1355C33.4155 4.1355 36.1789 6.81878 36.1789 10.4155C36.1789 14.0123 33.504 16.6258 29.7858 16.6258C26.0865 16.6258 23.4116 14.0123 23.4116 10.4155C23.4116 6.79341 26.1813 4.1355 29.7858 4.1355ZM29.7858 13.8473C31.6702 13.8473 33.0487 12.4391 33.0487 10.4092C33.0487 8.37927 31.6639 6.90759 29.7858 6.90759C27.9077 6.90759 26.5418 8.36658 26.5418 10.4092C26.5418 12.4391 27.9266 13.8473 29.7858 13.8473Z" fill="white"/>
<path d="M45.4534 8.70298L43.2528 16.3215H39.7622L36.2273 4.42114H39.6294L41.7161 12.8579L43.9863 4.42114H46.9331L49.1779 12.8579L51.29 4.42114H54.6921L51.1319 16.3215H47.6413L45.4534 8.70298Z" fill="white"/>
<path d="M56.3681 1.92847H59.454V4.43413H61.6799V6.9842H59.454V11.4183C59.454 13.1944 59.9978 13.5116 61.1993 13.5116C61.4017 13.5116 61.5155 13.5116 61.7684 13.4862V16.1695C61.7684 16.1695 61.2942 16.3281 60.4278 16.3281C57.5949 16.3281 56.3491 14.7359 56.3491 11.5071V6.97786H55.1034V4.42779H56.3744V1.92847H56.3681Z" fill="white"/>
<path d="M73.3118 9.4574V16.3274H70.207V9.09582C70.207 7.77638 69.3027 6.95807 68.234 6.95807C66.9187 6.95807 66.0777 7.91593 66.0777 9.19097V16.3337H62.9475V0.411621H66.0777V5.82894C66.5772 5.01063 67.6649 4.14792 69.2078 4.14792C72.6099 4.13523 73.3118 6.9327 73.3118 9.4574Z" fill="white"/>
<path d="M77.148 3.29179H73.3096V0.405518H84.1608V3.29179H80.3477V16.3276H77.148V3.29179Z" fill="white"/>
<path d="M90.4833 7.56165C88.2448 7.58702 87.2836 8.77325 87.2836 11.1394V16.3283H84.1534V4.43432H87.214V5.9631C87.9349 4.7515 89.2313 4.42798 90.477 4.42798V7.56165H90.4833Z" fill="white"/>
<path d="M93.773 0C94.8164 0 95.6068 0.773902 95.6068 1.7952C95.6068 2.8165 94.8164 3.5904 93.773 3.5904C92.7549 3.5904 91.9581 2.8165 91.9581 1.7952C91.9581 0.773902 92.7549 0 93.773 0ZM92.23 4.42774H95.3602V16.3281H92.23V4.42774Z" fill="white"/>
<path d="M97.6604 0.398682H100.791V5.67644C101.088 5.26412 102.264 4.12864 104.306 4.12864C107.709 4.12864 109.928 6.69774 109.928 10.3833C109.928 14.0435 107.525 16.6189 104.123 16.6189C102.106 16.6189 100.923 15.4834 100.607 15.0965V16.3271H97.6604V0.398682V0.398682ZM103.737 13.8468C105.508 13.8468 106.779 12.5274 106.779 10.4087C106.779 8.34069 105.552 6.90707 103.737 6.90707C102.011 6.90707 100.696 8.18211 100.696 10.4087C100.702 12.299 101.834 13.8468 103.737 13.8468Z" fill="white"/>
<path d="M116.53 4.1355C120.204 4.1355 122.291 6.59042 122.291 10.4853C122.291 10.7137 122.291 10.942 122.266 11.1704H113.919C113.988 12.7626 115.259 13.8981 117.005 13.8981C118.617 13.8981 119.547 12.9402 119.882 12.4391L121.943 14.0059C121.488 14.8496 119.901 16.6194 116.954 16.6194C113.147 16.6194 110.719 13.9805 110.719 10.4092C110.725 6.81878 113.154 4.1355 116.53 4.1355ZM119.117 9.11511C119.047 7.65612 118.004 6.7046 116.575 6.7046C115.101 6.7046 114.146 7.75127 114.014 9.11511H119.117Z" fill="white"/>
<path d="M23.1381 7.56165C20.8996 7.58702 19.9384 8.77325 19.9384 11.1394V16.3283H16.8082V4.43432H19.8688V5.9631C20.5897 4.7515 21.886 4.42798 23.1318 4.42798V7.56165H23.1381Z" fill="white"/>
</svg>
