<svg width="93" height="33" viewBox="0 0 93 33" fill="none" xmlns="http://www.w3.org/2000/svg">
<path d="M0 0.489502V16.8427H16.6578V0.489502H0ZM11.531 11.8096H5.12681V5.52259H11.531V11.8096Z" fill="white"/>
<path d="M28.1934 5.52246H21.7849V11.8138H28.1934V5.52246Z" fill="white"/>
<path d="M33.3152 0.489502H42.5977C46.0053 0.489502 47.5626 2.71832 47.5626 4.75818C47.5626 6.22688 46.9852 7.17165 45.4454 8.05631C47.3876 8.7606 48.4463 10.036 48.4463 11.9986C48.4463 14.3477 46.6965 16.8427 42.6108 16.8427H33.3108L33.3152 0.489502ZM38.3851 13.1581H41.7447C41.9675 13.1772 42.192 13.1505 42.4038 13.0797C42.6155 13.0088 42.8099 12.8955 42.9746 12.7468C43.1392 12.5981 43.2705 12.4173 43.36 12.216C43.4495 12.0148 43.4953 11.7974 43.4944 11.5777C43.4881 11.3847 43.4416 11.1949 43.3578 11.0201C43.2741 10.8453 43.1548 10.6891 43.0073 10.5612C42.8598 10.4333 42.6872 10.3364 42.5002 10.2763C42.3132 10.2163 42.1156 10.1945 41.9196 10.2121H38.3851V13.1581ZM38.3851 6.93546H41.0841C42.3177 6.93546 42.8076 6.37289 42.8076 5.54406C42.8142 5.36964 42.7826 5.19586 42.7149 5.03448C42.6472 4.87309 42.545 4.72785 42.4152 4.60857C42.2854 4.48929 42.131 4.39875 41.9625 4.34306C41.794 4.28738 41.6153 4.26785 41.4384 4.28579H38.4201L38.3851 6.93546Z" fill="white"/>
<path d="M53.7301 0.489502H59.0975L65.2217 16.8084H59.6968L58.8876 14.3648H53.7301L53.0477 16.7955H47.606L53.7301 0.489502ZM56.1929 5.33793L54.78 10.7919H57.8071L56.1929 5.33793Z" fill="white"/>
<path d="M73.766 5.34658H78.8841C78.8841 2.57237 76.7581 0 71.7144 0C66.1808 0 64.4704 3.00611 64.4704 5.19198C64.4704 8.7263 68.8798 9.66679 69.0154 9.70973C69.6716 9.91586 72.41 10.633 73.0924 10.8735C73.6873 11.0797 74.2516 11.5478 74.2516 12.1619C74.2516 13.1152 73.0924 13.5747 72.13 13.5747C71.5088 13.5747 69.4266 13.3729 69.4266 11.2085H64.1423C64.1423 14.0815 66.1589 17.3023 71.8107 17.3023C78.053 17.3023 79.3565 13.6477 79.3565 11.7195C79.3449 10.8029 79.0489 9.91154 78.5081 9.16424C77.9673 8.41695 77.2073 7.84922 76.3294 7.53674C75.0609 7.03429 72.9524 6.59197 71.8982 6.29136C71.3645 6.13676 69.5885 5.78461 69.5885 4.71959C69.5885 3.35825 71.8763 3.53433 71.5438 3.53433C72.5762 3.52574 73.766 4.0969 73.766 5.34658Z" fill="white"/>
<path d="M80.2267 0.485352H93V4.80127H85.3316V7.67854H92.1688V11.8012H85.3054V16.8386H80.2004L80.2267 0.485352Z" fill="white"/>
<path d="M6.64892 29.7816L6.64017 29.7601L5.04351 23.8682H4.04177L2.42324 29.7816H2.35762L2.35325 29.7601L0.93594 23.8682H0.0129395L1.85457 30.9196H2.81256L4.48796 24.9504H4.5492L4.55358 24.9718L6.20273 30.9196H7.1651L9.08547 23.8682H8.17996L6.71016 29.7816H6.64892Z" fill="white"/>
<path d="M13.337 26.7026C13.1531 26.4141 12.9048 26.1703 12.6109 25.9898C12.2631 25.793 11.8659 25.6963 11.4648 25.7106C11.1291 25.7088 10.7968 25.7761 10.4893 25.9082C10.1918 26.039 9.92632 26.2308 9.71065 26.4707C9.48431 26.7206 9.31171 27.0127 9.20322 27.3296C9.07744 27.671 9.01521 28.0317 9.01949 28.3947C9.03113 28.7601 9.09143 29.1225 9.19884 29.4726C9.29011 29.7877 9.44812 30.0804 9.66253 30.3314C9.87534 30.5521 10.1353 30.7236 10.4237 30.8339C10.7659 30.9729 11.1339 31.0402 11.5042 31.0314C12.0276 31.0518 12.5431 30.9007 12.9696 30.602C13.3669 30.2893 13.6306 29.842 13.7089 29.348H12.9215C12.8647 29.6464 12.6981 29.9139 12.4534 30.0995C12.1836 30.2768 11.8635 30.3655 11.5392 30.3529C11.281 30.3586 11.0245 30.3103 10.7868 30.2112C10.5851 30.1236 10.4058 29.993 10.2618 29.829C10.1243 29.6694 10.0216 29.4837 9.95999 29.2836C9.89695 29.0674 9.8689 28.8427 9.87688 28.618V28.618H13.8138C13.8225 28.2979 13.7931 27.978 13.7264 27.6646C13.6587 27.3283 13.5298 27.0068 13.3458 26.7155L13.337 26.7026ZM9.88563 27.9223V27.8965C9.89834 27.7023 9.94111 27.5112 10.0125 27.3296C10.084 27.1539 10.1894 26.9935 10.3231 26.8572C10.4557 26.7214 10.6149 26.6133 10.7911 26.5395C10.9856 26.4564 11.1959 26.4154 11.4079 26.4192C11.6156 26.4163 11.8215 26.4573 12.0116 26.5395C12.189 26.6139 12.3507 26.7202 12.4884 26.8529C12.6241 26.9877 12.7325 27.1465 12.8077 27.321C12.8857 27.5055 12.9315 27.7014 12.9433 27.9008V27.9266L9.88563 27.9223Z" fill="white"/>
<path d="M19.8597 30.3364C19.6105 30.3419 19.3638 30.2858 19.1423 30.1732C18.9499 30.069 18.7851 29.9219 18.6612 29.7438C18.5327 29.5584 18.4393 29.3518 18.3856 29.134C18.3282 28.9034 18.2988 28.667 18.2981 28.4297C18.299 28.1742 18.3269 27.9194 18.3812 27.6696C18.4289 27.4385 18.5209 27.2184 18.6524 27.0211C18.7861 26.8327 18.9649 26.6793 19.173 26.5745C19.4201 26.4542 19.6934 26.3953 19.9691 26.4027C20.2845 26.3909 20.5942 26.4881 20.844 26.6775C21.0692 26.8747 21.2228 27.1385 21.2814 27.4291H22.1169C22.0902 27.1656 22.0099 26.91 21.8807 26.6775C21.7597 26.4655 21.5942 26.281 21.3952 26.1364C21.193 25.9862 20.9626 25.8767 20.7171 25.8144C20.446 25.7439 20.1665 25.7093 19.886 25.7113C19.5175 25.7052 19.152 25.777 18.8143 25.9217C18.5174 26.0552 18.2556 26.2535 18.0487 26.5015C17.8481 26.7575 17.6996 27.0491 17.6113 27.3604C17.5075 27.7091 17.456 28.0707 17.4582 28.434C17.45 28.7868 17.4972 29.1388 17.5982 29.4775C17.6875 29.7925 17.8441 30.0853 18.0575 30.3364C18.2659 30.5682 18.5265 30.749 18.8186 30.8646C19.1523 30.9954 19.5092 31.0596 19.8685 31.0536C20.4376 31.0843 20.9974 30.9016 21.4345 30.5425C21.8354 30.1643 22.0879 29.6595 22.1476 29.1168H21.3208C21.2882 29.4637 21.1335 29.7887 20.8834 30.0358C20.6015 30.2714 20.2381 30.3914 19.8685 30.3708" fill="white"/>
<path d="M24.7847 25.9857C24.4403 26.216 24.1642 26.5316 23.9842 26.9004V26.9004H23.9579V25.8311H23.1968V30.92H23.9842V28.6612C23.9854 28.3569 24.025 28.054 24.1023 27.7593C24.1608 27.5235 24.2697 27.3024 24.4216 27.1109C24.5787 26.9177 24.7856 26.7694 25.0209 26.6814C25.3017 26.5839 25.5979 26.5359 25.8958 26.5397V25.6808H25.8345C25.463 25.6666 25.0957 25.7624 24.7803 25.9557" fill="white"/>
<path d="M30.3019 26.7026C30.116 26.4142 29.8663 26.1705 29.5714 25.9898C29.2236 25.793 28.8264 25.6963 28.4253 25.7106C28.0896 25.7084 27.7572 25.7758 27.4498 25.9082C27.1548 26.0411 26.8912 26.2326 26.6755 26.4707C26.4521 26.7219 26.2811 27.0137 26.1725 27.3296C26.0467 27.671 25.9844 28.0317 25.9887 28.3946C25.999 28.7599 26.0578 29.1223 26.1637 29.4725C26.2583 29.7872 26.4176 30.0796 26.6318 30.3314C26.8408 30.5697 27.1027 30.7577 27.3973 30.8811C27.7392 31.0211 28.1074 31.0884 28.4778 31.0787C28.9998 31.0984 29.5137 30.9473 29.9388 30.6492C30.3388 30.3381 30.6044 29.8903 30.6825 29.3952H29.8863C29.8331 29.6939 29.6676 29.9621 29.4226 30.1468C29.1525 30.3232 28.8327 30.4118 28.5084 30.4001C28.2501 30.4064 27.9936 30.3581 27.756 30.2584C27.553 30.171 27.3722 30.0405 27.2267 29.8762C27.0889 29.7175 26.9874 29.5315 26.9292 29.3308C26.861 29.0995 26.8329 28.8585 26.8461 28.618V28.618H30.7831C30.7933 28.2981 30.7654 27.9781 30.7 27.6646C30.6308 27.3281 30.5004 27.0066 30.315 26.7155L30.3019 26.7026ZM26.8592 27.9223V27.8965C26.8684 27.7023 26.9098 27.5108 26.9817 27.3296C27.0532 27.1539 27.1587 26.9935 27.2923 26.8572C27.4241 26.7205 27.5835 26.6123 27.7604 26.5395C27.9534 26.4569 28.1622 26.4159 28.3728 26.4192C28.5806 26.4154 28.7866 26.4564 28.9765 26.5395C29.3365 26.6867 29.6226 26.9676 29.7726 27.321C29.852 27.5052 29.8993 27.7012 29.9126 27.9008V27.9266L26.8592 27.9223Z" fill="white"/>
<path d="M36.0005 30.1896C35.9723 30.0482 35.9605 29.9042 35.9655 29.7602V27.0976C35.9767 26.8491 35.9177 26.6024 35.7949 26.3847C35.6894 26.2068 35.5387 26.0589 35.3575 25.9553C35.1645 25.8526 34.954 25.7856 34.7363 25.7577C34.2294 25.6776 33.7117 25.6907 33.2096 25.7964C32.9632 25.8498 32.7289 25.9473 32.5185 26.0841C32.3193 26.219 32.1558 26.3986 32.0417 26.608C31.9175 26.845 31.8488 27.1061 31.8405 27.3725H32.6497C32.6429 27.2211 32.6769 27.0707 32.7483 26.9365C32.8198 26.8022 32.9261 26.6889 33.0565 26.608C33.3419 26.4603 33.6615 26.3878 33.9839 26.3976C34.1215 26.3991 34.2588 26.4091 34.3951 26.4277C34.5298 26.4469 34.6601 26.4891 34.7801 26.5522C34.8987 26.6127 34.9973 26.705 35.0644 26.8185C35.1462 26.9594 35.1856 27.1202 35.1781 27.2823C35.1829 27.3531 35.1717 27.4241 35.1452 27.4902C35.1188 27.5563 35.0777 27.6158 35.025 27.6645C34.9091 27.7589 34.7731 27.8264 34.627 27.862C34.4419 27.9098 34.2532 27.9428 34.0627 27.9608C33.8527 27.9608 33.6252 28.0166 33.389 28.0639C33.1528 28.1111 32.9516 28.154 32.7372 28.2142C32.5367 28.2674 32.3472 28.3546 32.1773 28.4718C32.0162 28.5844 31.8831 28.7312 31.788 28.9013C31.6801 29.1189 31.6289 29.3594 31.6392 29.6013C31.6326 29.8258 31.6775 30.0488 31.7705 30.254C31.8581 30.4227 31.9838 30.5696 32.1379 30.6835C32.3013 30.7981 32.4854 30.8812 32.6803 30.9283C32.8984 30.9775 33.1215 31.002 33.3453 31.0013C33.6892 31.004 34.0306 30.9428 34.3514 30.8209C34.6698 30.6909 34.9508 30.4859 35.1694 30.224L35.2175 30.1681V30.2411C35.2067 30.3459 35.2178 30.4518 35.2501 30.5522C35.2825 30.6527 35.3354 30.7456 35.4056 30.8252C35.5464 30.947 35.73 31.0101 35.9174 31.0013C36.1229 31.0118 36.3278 30.9704 36.5123 30.881V30.2798C36.4358 30.3032 36.3563 30.3163 36.2761 30.3184C36.123 30.3184 36.0355 30.2669 36.0093 30.1595L36.0005 30.1896ZM35.165 29.1289C35.1619 29.2639 35.1307 29.397 35.0731 29.5197C35.0045 29.6687 34.9046 29.8019 34.7801 29.9105C34.6328 30.0383 34.4621 30.1374 34.277 30.2025C34.0398 30.2848 33.7893 30.3241 33.5377 30.3184C33.407 30.3185 33.2765 30.3056 33.1484 30.2798C33.0308 30.2539 32.9185 30.2089 32.816 30.1467C32.7215 30.0825 32.6424 29.999 32.5841 29.9019C32.5234 29.7896 32.4933 29.6639 32.4966 29.5369C32.489 29.3626 32.5397 29.1906 32.641 29.0473C32.7422 28.9179 32.8765 28.8171 33.0303 28.7553C33.2013 28.6868 33.3807 28.6406 33.564 28.6178C33.7477 28.5878 33.9446 28.562 34.1458 28.5362C34.3311 28.5167 34.5152 28.4866 34.6969 28.4461C34.8539 28.4238 35.0035 28.3665 35.1344 28.2786L35.1781 28.2442L35.165 29.1289Z" fill="white"/>
<path d="M44.4522 26.7026C44.2664 26.4142 44.0167 26.1705 43.7217 25.9898C43.3739 25.793 42.9768 25.6963 42.5756 25.7106C42.2399 25.7079 41.9074 25.7753 41.6001 25.9082C41.3045 26.04 41.0406 26.2317 40.8258 26.4707C40.6026 26.7228 40.4304 27.0143 40.3184 27.3296C40.1963 27.6718 40.1356 28.0321 40.1391 28.3947C40.15 28.7598 40.2088 29.1221 40.314 29.4726C40.4077 29.7876 40.5671 30.0801 40.7821 30.3314C40.9911 30.5697 41.253 30.7577 41.5476 30.8811C41.8895 31.0211 42.2578 31.0884 42.6281 31.0787C43.1502 31.099 43.6643 30.9479 44.0892 30.6492C44.4862 30.3356 44.751 29.889 44.8328 29.3953H44.0367C43.9799 29.6937 43.8133 29.9612 43.5686 30.1468C43.3004 30.3239 42.9817 30.4127 42.6587 30.4002C42.401 30.3884 42.1489 30.3225 41.9194 30.2069C41.7164 30.1195 41.5356 29.9889 41.3901 29.8247C41.2523 29.6659 41.1509 29.4799 41.0927 29.2793C41.0232 29.0657 40.9906 28.8421 40.9964 28.618V28.618H44.9334C44.9446 28.2978 44.9152 27.9776 44.8459 27.6646C44.7783 27.3283 44.6494 27.0068 44.4654 26.7155L44.4522 26.7026ZM41.0271 27.9223V27.8965C41.0342 27.702 41.0756 27.5102 41.1495 27.3296C41.221 27.1539 41.3265 26.9935 41.4601 26.8572C41.5877 26.7153 41.7442 26.6011 41.9194 26.5223C42.1139 26.4392 42.3242 26.3982 42.5362 26.402C42.7439 26.3991 42.9498 26.4402 43.1399 26.5223C43.3166 26.5957 43.4771 26.7022 43.6123 26.8358C43.7495 26.9693 43.8581 27.1285 43.9317 27.3039C44.0115 27.4879 44.0589 27.684 44.0717 27.8836V27.9094L41.0271 27.9223Z" fill="white"/>
<path d="M50.9877 30.3357C50.7397 30.3417 50.4943 30.2856 50.2746 30.1725C50.0809 30.0684 49.9146 29.9214 49.7891 29.743C49.6625 29.5566 49.5693 29.3504 49.5135 29.1332C49.4571 28.9026 49.4292 28.6661 49.4304 28.4289C49.4297 28.1736 49.4561 27.9188 49.5091 27.6688C49.5599 27.4387 49.6518 27.2192 49.7803 27.0203C49.911 26.8292 50.0865 26.6716 50.2921 26.5608C50.5392 26.4406 50.8126 26.3816 51.0883 26.3891C51.4037 26.3772 51.7133 26.4745 51.9631 26.6639C52.1915 26.8585 52.3457 27.1235 52.4006 27.4154H53.2405C53.2122 27.1517 53.1304 26.8961 52.9999 26.6639C52.8801 26.4523 52.7161 26.2679 52.5187 26.1228C52.314 25.9741 52.0824 25.8648 51.8363 25.8007C51.5666 25.7306 51.2885 25.6959 51.0095 25.6977C50.6396 25.6913 50.2726 25.763 49.9334 25.9081C49.6374 26.0429 49.3758 26.2409 49.1679 26.4878C48.9673 26.7439 48.8188 27.0355 48.7305 27.3467C48.6282 27.6956 48.5781 28.0573 48.5817 28.4203C48.5788 28.7766 48.6305 29.1313 48.7348 29.4725C48.8244 29.7714 48.9731 30.0501 49.1723 30.2927C49.3807 30.5245 49.6413 30.7053 49.9334 30.8209C50.2672 30.9513 50.6241 31.0156 50.9833 31.0099C51.5536 31.0399 52.1145 30.8574 52.5537 30.4988C52.9583 30.1289 53.2195 29.6326 53.293 29.0946H52.4706C52.4359 29.4409 52.2815 29.7652 52.0331 30.0136C51.7518 30.25 51.388 30.3701 51.0183 30.3485" fill="white"/>
<path d="M58.2537 26.2301C58.1057 26.0611 57.918 25.9299 57.7069 25.8479C57.4272 25.7466 57.13 25.6999 56.832 25.7105C56.6717 25.7115 56.5119 25.7288 56.3552 25.762C56.1934 25.7925 56.0361 25.8431 55.8871 25.9123C55.7399 25.9803 55.6042 26.0701 55.4847 26.1786C55.3547 26.2852 55.2501 26.4186 55.1785 26.5694V26.5694H55.1391V23.8682H54.3342V30.9196H55.1391V28.0424C55.1378 27.8224 55.1717 27.6035 55.2397 27.3939C55.2991 27.2011 55.3989 27.0226 55.5328 26.87C55.6681 26.7201 55.8354 26.6013 56.0228 26.5221C56.2448 26.4393 56.4808 26.3985 56.7183 26.4019C56.8646 26.3945 57.0109 26.4162 57.1484 26.4657C57.2859 26.5151 57.4119 26.5913 57.5188 26.6896C57.6194 26.7925 57.6973 26.9146 57.7477 27.0483C57.7981 27.1821 57.82 27.3245 57.8119 27.4669V30.9025H58.6211V27.5657C58.6229 27.3112 58.5935 27.0575 58.5337 26.8099C58.4837 26.5967 58.3833 26.3981 58.2406 26.2301" fill="white"/>
<path d="M64.0409 26.7026C63.855 26.4142 63.6053 26.1705 63.3103 25.9898C62.9625 25.793 62.5654 25.6963 62.1642 25.7106C61.8271 25.7084 61.4933 25.7757 61.1844 25.9082C60.8907 26.0411 60.6285 26.2327 60.4145 26.4707C60.1913 26.7228 60.019 27.0143 59.907 27.3296C59.7849 27.6718 59.7242 28.0321 59.7277 28.3947C59.7383 28.7599 59.7971 29.1222 59.9027 29.4726C59.9972 29.7872 60.1565 30.0796 60.3707 30.3314C60.5797 30.5697 60.8416 30.7577 61.1362 30.8811C61.4768 31.0205 61.8435 31.0878 62.2123 31.0787C62.7358 31.099 63.2513 30.9479 63.6778 30.6492C64.0748 30.3356 64.3396 29.889 64.4214 29.3953H63.6253C63.5685 29.6937 63.4019 29.9612 63.1572 30.1468C62.8877 30.3245 62.5674 30.4133 62.243 30.4002C61.9862 30.4059 61.7311 30.3576 61.4949 30.2584C61.2913 30.172 61.1103 30.0413 60.9656 29.8762C60.8278 29.7175 60.7264 29.5315 60.6682 29.3308C60.6045 29.1206 60.5765 28.9015 60.5851 28.6824V28.618H64.522C64.5332 28.2978 64.5038 27.9776 64.4345 27.6646C64.3669 27.3283 64.238 27.0068 64.054 26.7155L64.0409 26.7026ZM60.5938 27.9223V27.8965C60.6051 27.7012 60.651 27.5094 60.7294 27.3296C60.7994 27.1542 60.9034 26.9938 61.0356 26.8572C61.1778 26.7178 61.3471 26.6079 61.5335 26.5341C61.7199 26.4603 61.9195 26.4242 62.1205 26.4278C62.3282 26.4239 62.5343 26.465 62.7241 26.548C63.0841 26.6953 63.3703 26.9762 63.5203 27.3296C63.5997 27.5138 63.647 27.7098 63.6603 27.9094V27.9351L60.5938 27.9223Z" fill="white"/>
<path d="M72.3697 26.0414C72.2094 25.9205 72.0267 25.8315 71.8317 25.7794C71.5997 25.7239 71.3617 25.6965 71.123 25.6978C70.7978 25.6952 70.4773 25.7735 70.1913 25.9254C69.91 26.0751 69.6733 26.2942 69.5045 26.561L69.4739 26.6082V26.5567C69.4333 26.4164 69.3644 26.2855 69.2712 26.1719C69.178 26.0582 69.0624 25.9642 68.9314 25.8954C68.6604 25.761 68.3602 25.6932 68.0565 25.6978C67.7215 25.6846 67.3887 25.7568 67.0905 25.9073C66.7923 26.0578 66.5389 26.2815 66.3549 26.5567H66.3243V25.831H65.5413V30.9199H66.3461V27.7592C66.3515 27.6298 66.3781 27.5022 66.4249 27.3812C66.5459 27.0376 66.7921 26.75 67.1161 26.5739C67.3186 26.4664 67.5464 26.413 67.7766 26.4193C67.9447 26.4134 68.112 26.4442 68.2665 26.5095C68.3919 26.56 68.4997 26.645 68.5771 26.7543C68.6572 26.8663 68.7123 26.9936 68.739 27.1279C68.7714 27.2804 68.7876 27.4358 68.7871 27.5917V30.937H69.592V27.7592C69.5844 27.5812 69.6134 27.4035 69.6773 27.2368C69.7412 27.07 69.8386 26.9176 69.9638 26.7886C70.1003 26.6625 70.2613 26.5648 70.4372 26.5014C70.6131 26.4379 70.8002 26.41 70.9874 26.4193C71.1674 26.4121 71.3467 26.4444 71.5123 26.5138C71.6406 26.5675 71.7512 26.6553 71.8317 26.7671C71.9137 26.8776 71.9677 27.0057 71.9891 27.1408C72.0147 27.2825 72.0279 27.4262 72.0285 27.5702V30.9156H72.8378V27.1751C72.8429 26.9456 72.7998 26.7175 72.7109 26.5052C72.6336 26.3362 72.5149 26.1887 72.3653 26.0757" fill="white"/>
<path d="M75.0612 24.8516H74.2563V23.8682H75.0612V24.8516ZM75.0612 25.8307H74.2563V30.9196H75.0612V25.8307Z" fill="white"/>
<path d="M79.8814 30.6964C80.0882 30.5756 80.2623 30.4077 80.3889 30.2068C80.5281 29.9775 80.5965 29.7134 80.5857 29.4467C80.5929 29.2359 80.5431 29.027 80.4414 28.8412C80.3459 28.6824 80.2178 28.545 80.0652 28.4375C79.9029 28.3307 79.7262 28.2469 79.5402 28.1884C79.3337 28.1196 79.1234 28.0622 78.9103 28.0167L78.3023 27.8835C78.1147 27.8444 77.9304 27.7913 77.7511 27.7246C77.5998 27.6686 77.4604 27.5856 77.3399 27.4799C77.2444 27.3851 77.1862 27.2601 77.1758 27.1272C77.1654 26.9943 77.2034 26.8621 77.283 26.7541C77.3564 26.6661 77.4491 26.5956 77.5543 26.548C77.6711 26.4956 77.7947 26.4595 77.9217 26.4406C78.1933 26.3889 78.4725 26.3889 78.7441 26.4406C78.8804 26.4705 79.0115 26.5197 79.1334 26.5866C79.2501 26.6547 79.3501 26.747 79.4265 26.8572C79.5039 26.9788 79.549 27.1176 79.5577 27.2608H80.367C80.3556 27.0023 80.2885 26.7491 80.1701 26.5179C80.0677 26.3229 79.9174 26.1561 79.7327 26.0326C79.5334 25.9082 79.3124 25.8209 79.0809 25.775C78.8112 25.7251 78.5373 25.7006 78.2629 25.702C78.0316 25.7042 77.8013 25.7315 77.5761 25.7836C77.3438 25.8358 77.1211 25.9227 76.9156 26.0412C76.7387 26.1502 76.5892 26.297 76.4781 26.4707C76.3584 26.6678 76.2978 26.894 76.3032 27.1234C76.2865 27.3972 76.3756 27.667 76.5525 27.8792C76.7224 28.0683 76.9352 28.2154 77.1737 28.3087C77.4396 28.4137 77.7149 28.4942 77.9961 28.5492C78.2749 28.5976 78.5509 28.6607 78.8228 28.7381C79.0508 28.7952 79.268 28.888 79.4659 29.013C79.5518 29.07 79.6214 29.1477 79.6682 29.2387C79.7149 29.3297 79.7371 29.4308 79.7327 29.5326C79.7432 29.6866 79.6965 29.8391 79.6015 29.962C79.5197 30.0697 79.4092 30.1529 79.2821 30.2025C79.1426 30.2603 78.9952 30.2979 78.8447 30.3142C78.5307 30.3684 78.2095 30.3684 77.8955 30.3142C77.7403 30.2856 77.5919 30.2288 77.458 30.1467C77.3222 30.0712 77.2079 29.9634 77.1256 29.8332C77.0436 29.6913 76.9971 29.5324 76.9899 29.3694H76.1851C76.1936 29.6379 76.2607 29.9015 76.3819 30.1424C76.4963 30.3542 76.6614 30.5355 76.8631 30.6706C77.0709 30.8092 77.3041 30.907 77.5499 30.9584C78.0836 31.0684 78.6347 31.0684 79.1684 30.9584C79.4183 30.9121 79.6582 30.8235 79.8771 30.6964" fill="white"/>
<path d="M82.7689 24.2893H81.964V25.831H81.0891V26.5224H81.964V29.8248C81.9573 30.0162 81.9809 30.2074 82.034 30.3917C82.0675 30.5194 82.141 30.6335 82.244 30.7181C82.3522 30.8012 82.4801 30.8559 82.6158 30.877C82.8035 30.909 82.9939 30.9233 83.1845 30.9199H83.8144V30.2285H83.4469C83.3113 30.2285 83.1976 30.2285 83.1145 30.2285C83.0399 30.2223 82.968 30.1987 82.9045 30.1598C82.8512 30.122 82.8126 30.0675 82.7951 30.0052C82.7756 29.9236 82.7668 29.8399 82.7689 29.7561V26.5353H83.845V25.831H82.7689V24.2893Z" fill="white"/>
<path d="M38.4998 24.2893H37.6906V25.831H36.8157V26.5224H37.6906V29.8248C37.6861 30.0161 37.7097 30.207 37.7605 30.3917C37.7976 30.5179 37.8704 30.6311 37.9705 30.7181C38.0792 30.8004 38.2069 30.855 38.3423 30.877C38.5301 30.9086 38.7205 30.923 38.911 30.9199H39.5409V30.2285H39.1735C39.0379 30.2285 38.9285 30.2285 38.841 30.2285C38.7668 30.2208 38.6952 30.1973 38.6311 30.1598C38.5788 30.1218 38.5417 30.0671 38.5261 30.0052C38.5065 29.9236 38.4977 29.8399 38.4998 29.7561V26.5353H39.5759V25.831H38.4998V24.2893Z" fill="white"/>
<path d="M85.8474 26.9609H85.8168V25.8315H85.0513V30.9204H85.8605V28.7217C85.8573 28.4224 85.8911 28.1239 85.9611 27.8327C86.0219 27.5912 86.1353 27.3656 86.2936 27.1714C86.4507 26.9782 86.6576 26.8299 86.8929 26.7419C87.1736 26.6438 87.4699 26.5958 87.7678 26.6002V25.7413C87.3775 25.7195 86.9898 25.8154 86.6567 26.0162C86.3149 26.248 86.0405 26.5633 85.8605 26.9309" fill="white"/>
<path d="M90.4231 32.251C90.5354 32.0453 90.6347 31.833 90.7206 31.6154L92.9865 25.8308H92.1116L90.6418 30.0394H90.5806L89.0539 25.848H88.144L90.2088 30.9369L89.8544 31.7958C89.7867 31.9368 89.6863 32.0603 89.5614 32.1565C89.4329 32.243 89.2796 32.2867 89.1239 32.2811C89.0332 32.2815 88.943 32.2669 88.8571 32.2381L88.6427 32.1694V32.9123C88.7303 32.943 88.8214 32.9632 88.9139 32.9725C89.0144 32.9788 89.1153 32.9788 89.2158 32.9725C89.385 32.9753 89.5535 32.9506 89.7145 32.8995C89.8553 32.8469 89.9845 32.7681 90.095 32.6676C90.2223 32.5405 90.3299 32.3958 90.4144 32.2381" fill="white"/>
</svg>
