<svg width="130" height="28" viewBox="0 0 130 28" fill="none" xmlns="http://www.w3.org/2000/svg">
<path d="M25.1593 10.25V21.9953L22.6455 23.8373V12.1353L25.1593 10.25Z" fill="white"/>
<path d="M25.1592 10.25L22.6455 12.1353L18.7231 10.8568V8.16968L25.1592 10.25Z" fill="#929292"/>
<path d="M18.7016 3.25054L16.1878 5.13585L8.6899 2.68711L6.13281 1.88531L8.6899 0L18.7016 3.25054Z" fill="#929292"/>
<path d="M16.1875 25.2457V21.2801V10.0549V7.36778V5.11408L18.7012 3.22876V8.14791V10.835V23.3821L16.1875 25.2457Z" fill="white"/>
<path d="M12.8938 20.1967L15.4075 18.3547V20.6084V24.6174V25.8093L12.8938 27.6513V23.6856V22.4938V20.1967Z" fill="white"/>
<path d="M11.9835 8.68987V14.4108L9.46973 11.5287V7.84473L11.9835 8.68987Z" fill="#C2C2C2"/>
<path d="M9.44824 19.5898L11.2035 18.3113L12.8938 20.1966V22.472L9.44824 19.5898Z" fill="#929292"/>
<path d="M9.44824 16.2744L11.2035 18.3114L9.44824 19.59V16.2744Z" fill="#C2C2C2"/>
<path d="M9.44824 7.86639L11.962 6.02441L16.166 7.38964V10.0551L11.962 8.68986L9.44824 7.86639Z" fill="#929292"/>
<path d="M11.9837 14.4325L15.4293 18.3548L12.9155 20.1968L11.2252 18.3115L9.46993 16.2745L8.71147 15.386L6.45776 12.8722L9.01485 11.0303L9.44826 11.5504L11.9837 14.4325Z" fill="#929292"/>
<path d="M6.13281 12.417V1.88525L8.6899 2.68706V11.1818L6.13281 12.417Z" fill="#C2C2C2"/>
<path d="M12.8939 27.6512L6.13281 21.9953L8.6899 20.1533L12.8939 23.6856V27.6512Z" fill="#929292"/>
<path d="M8.6899 20.1533L6.13281 21.9953V13.0238L6.45787 12.8721L8.6899 15.3858V20.1533Z" fill="#C2C2C2"/>
<path d="M6.13268 12.4172L8.68977 11.182L9.01483 11.0303L6.45774 12.8722L6.13268 13.0239L2.55709 14.7792L0 16.0578L2.55709 14.1725L6.13268 12.4172Z" fill="#929292"/>
<path d="M2.55709 14.7791V21.6269L0 23.5122V16.0576L2.55709 14.7791Z" fill="#C2C2C2"/>
<path d="M37.4463 11.1819H43.2539V12.1787H38.4431V15.3425H43.2106V16.3394H38.4431V20.3484H43.2106V21.3452H37.4463V11.1819V11.1819ZM51.8787 11.1819H53.0705L55.5193 15.1475L57.968 11.1819H59.1382L56.1044 16.0793L59.3549 21.3235H58.1631L55.5193 17.0328L52.8322 21.3235H51.6403L54.8909 16.0793L51.8787 11.1819ZM68.4131 11.1819H70.4068C71.5769 11.1819 72.3354 11.2252 72.7688 11.3336C73.3322 11.4852 73.809 11.767 74.1774 12.222C74.5458 12.6771 74.7408 13.2189 74.7408 13.9123C74.7408 14.6058 74.5891 15.1475 74.2207 15.6026C73.8523 16.036 73.3756 16.3177 72.7471 16.4911C72.3137 16.6211 71.4253 16.6428 70.19 16.6428H69.4749V21.3669H68.4781V11.1819H68.4131V11.1819ZM69.4099 12.1787V15.6243L71.1219 15.6676C71.7937 15.6676 72.3137 15.5809 72.6388 15.4726C72.9638 15.3426 73.2022 15.1475 73.3973 14.8658C73.5923 14.5841 73.679 14.259 73.679 13.9123C73.679 13.5873 73.5923 13.2622 73.3973 12.9805C73.2022 12.6988 72.9638 12.5037 72.6821 12.3737C72.3571 12.2437 71.8803 12.222 71.2086 12.222H69.4099V12.1787V12.1787ZM88.9998 10.9001C90.5168 10.9001 91.7953 11.4202 92.8355 12.4171C93.8756 13.4572 94.3957 14.6924 94.3957 16.231C94.3957 17.7046 93.8756 19.0048 92.8355 20.0017C91.7953 21.0418 90.5601 21.5619 89.0648 21.5619C87.5479 21.5619 86.2911 21.0418 85.2509 20.0017C84.2107 18.9615 83.6906 17.7263 83.6906 16.2744C83.6906 15.3209 83.929 14.3891 84.4057 13.5439C84.8825 12.6988 85.5326 12.0703 86.3344 11.5719C87.1579 11.1385 88.0463 10.9001 88.9998 10.9001ZM89.0432 11.897C88.2847 11.897 87.5696 12.092 86.9195 12.5037C86.2477 12.8938 85.7276 13.4356 85.3592 14.064C84.9908 14.7358 84.7958 15.4726 84.7958 16.2744C84.7958 17.4662 85.1859 18.5281 86.031 19.3082C86.8762 20.1534 87.873 20.5434 89.0432 20.5434C89.845 20.5434 90.5601 20.3484 91.2535 19.98C91.9253 19.5899 92.4454 19.0482 92.8138 18.4197C93.1822 17.748 93.3772 17.0112 93.3772 16.2094C93.3772 15.4076 93.1822 14.6924 92.8138 13.999C92.4454 13.3489 91.882 12.8288 91.2102 12.4387C90.5168 12.1137 89.8016 11.897 89.0432 11.897ZM103.866 11.1819H105.859C106.986 11.1819 107.745 11.2252 108.135 11.3119C108.741 11.4419 109.218 11.7453 109.608 12.2004C109.977 12.6338 110.172 13.1972 110.172 13.8906C110.172 14.4541 110.042 14.9308 109.782 15.3425C109.543 15.7326 109.132 16.0577 108.655 16.296C108.178 16.4911 107.485 16.6211 106.661 16.6211L110.323 21.3235H109.132L105.491 16.5994H104.906V21.3235H103.909V11.1819H103.866ZM104.906 12.1787V15.6243H106.661C107.333 15.6243 107.831 15.5376 108.178 15.4292C108.503 15.2992 108.741 15.1042 108.936 14.8225C109.131 14.5408 109.218 14.2157 109.218 13.869C109.218 13.5439 109.131 13.2189 108.936 12.9371C108.741 12.6554 108.503 12.4604 108.221 12.3304C107.94 12.2004 107.42 12.1787 106.748 12.1787H104.906ZM124.604 10.9001C126.121 10.9001 127.4 11.4202 128.44 12.4171C129.48 13.4572 130 14.6924 130 16.231C130 17.7046 129.48 19.0048 128.44 20.0017C127.4 21.0418 126.164 21.5619 124.669 21.5619C123.152 21.5619 121.895 21.0418 120.855 20.0017C119.815 18.9615 119.295 17.7263 119.295 16.2744C119.295 15.3209 119.533 14.3891 120.01 13.5439C120.487 12.6988 121.137 12.0703 121.939 11.5719C122.805 11.1385 123.694 10.9001 124.604 10.9001ZM124.647 11.897C123.889 11.897 123.174 12.092 122.524 12.5037C121.852 12.8938 121.332 13.4356 120.963 14.064C120.595 14.7358 120.4 15.4726 120.4 16.2744C120.4 17.4662 120.79 18.5281 121.635 19.3082C122.48 20.1534 123.477 20.5434 124.647 20.5434C125.449 20.5434 126.164 20.3484 126.858 19.98C127.53 19.5899 128.05 19.0482 128.418 18.4197C128.786 17.748 128.981 17.0112 128.981 16.2094C128.981 15.4076 128.786 14.6924 128.418 13.999C128.05 13.3489 127.486 12.8288 126.814 12.4387C126.186 12.1137 125.406 11.897 124.647 11.897Z" fill="white"/>
</svg>
