<svg width="122" height="23" viewBox="0 0 122 23" fill="none" xmlns="http://www.w3.org/2000/svg">
<path fill-rule="evenodd" clip-rule="evenodd" d="M121.622 0H119.992C119.682 0 119.456 0.325645 119.456 0.635709V7.24007C118.429 6.03113 116.683 5.56728 114.816 5.53051C114.741 5.52864 114.674 5.52786 114.6 5.52786C110.425 5.52786 107.731 8.40663 107.731 12.8617C107.731 17.1098 110.696 20.1929 114.866 20.1929C119.169 20.1929 122 17.2469 122 12.8617V0.635709C122 0.325645 121.933 0 121.622 0ZM114.931 17.6922C112.076 17.6922 110.372 15.8865 110.372 12.8617C110.372 9.7921 112.033 8.03143 114.931 8.03143C117.768 8.03143 119.387 9.74863 119.489 12.8617C119.489 15.8865 117.785 17.6922 114.931 17.6922Z" fill="white"/>
<path fill-rule="evenodd" clip-rule="evenodd" d="M48.5282 5.84839C44.1572 5.84839 41.333 8.72622 41.333 13.1796C41.333 17.633 44.1572 20.5108 48.5282 20.5108C50.8147 20.5108 52.676 19.719 54.0646 18.1522C54.1469 18.049 54.1804 17.9255 54.1586 17.8041C54.1354 17.6752 54.0512 17.559 53.9205 17.4808L52.5199 16.7637C52.2332 16.6405 51.9698 16.6886 51.77 16.8887C51.0012 17.5909 49.7893 18.0099 48.5282 18.0099C45.8855 18.0099 44.2393 16.432 43.9857 13.6721H55.2206C55.4624 13.6721 55.6756 13.5956 55.7165 13.3588C55.7229 13.3211 55.7236 13.0694 55.7236 13.0665C55.7248 10.8178 55.005 8.97255 53.6421 7.6815C52.3582 6.46571 50.59 5.84839 48.5282 5.84839ZM44.1745 11.4464C44.1762 11.4407 44.178 11.4347 44.1795 11.4287V11.4285C44.1812 11.4223 44.1828 11.4161 44.1847 11.4104C44.7496 9.43625 46.2922 8.36255 48.5282 8.36255C50.724 8.36255 52.2496 9.22076 52.8415 11.4464H44.1745Z" fill="white"/>
<path d="M37.2771 5.98413C38.0766 5.98413 38.8429 6.09133 39.6205 6.29404C39.7545 6.35029 40.1093 6.50127 39.9868 6.93037L39.6509 8.35168C39.6129 8.62513 39.4008 8.76941 39.0702 8.72157C38.4985 8.57028 37.9269 8.48505 37.4686 8.48505C36.5881 8.48505 34.5613 8.75725 34.5613 11.2773V19.6001C34.5613 19.9107 34.3269 20.0313 34.0166 20.0313H32.3861C32.0759 20.0313 32.0176 19.9107 32.0176 19.6001V11.3794C32.0176 8.0011 33.9417 5.98413 37.2771 5.98413Z" fill="white"/>
<path d="M86.8392 6.35913H84.9839C84.706 6.35913 84.4808 6.58428 84.4808 6.86209V19.5286C84.4808 19.8062 84.706 20.0314 84.9839 20.0314H86.8392C87.1172 20.0314 87.3425 19.8062 87.3425 19.5286V6.86209C87.3425 6.58428 87.1172 6.35913 86.8392 6.35913Z" fill="white"/>
<path d="M74.2192 5.84839C72.1082 5.84839 70.4046 6.65409 69.4157 8.12198C68.358 6.63352 66.6514 5.84839 64.5727 5.84839C60.7477 5.84839 58.4081 8.22061 58.4081 12.1944V19.6001C58.4081 19.9106 58.7032 20.0312 59.0134 20.0312H60.644C60.9543 20.0312 61.2697 19.9106 61.2697 19.6001V12.1944C61.2697 9.01649 63.1835 8.34931 64.7672 8.34931C65.9593 8.34931 67.947 9.60141 67.947 11.0572V19.5912C67.947 19.869 68.1721 20.0312 68.4501 20.0312H70.3053C70.5833 20.0312 70.8086 19.869 70.8086 19.5912V11.0462C70.8086 9.53192 72.3706 8.34931 73.9882 8.34931C75.5721 8.34931 77.4857 9.01649 77.4857 12.1944V19.6001C77.4857 19.9106 77.863 20.0312 78.1732 20.0312H79.8037C80.114 20.0312 80.3474 19.9106 80.3474 19.6001V12.1944C80.3474 8.22061 78.0437 5.84839 74.2192 5.84839Z" fill="white"/>
<path d="M91.158 12.7718C91.158 8.50209 93.8505 5.84972 97.994 5.84863C102.137 5.84972 104.83 8.50209 104.83 12.7718V19.6002C104.83 19.9107 104.457 20.0313 104.147 20.0313H102.516C102.206 20.0313 101.969 19.9107 101.969 19.6002V12.7718C101.969 8.87386 99.1018 8.70917 97.994 8.67053C96.8862 8.70917 94.0196 8.87386 94.0196 12.7718V19.6002C94.0196 19.9107 93.7773 20.0313 93.4668 20.0313H91.8359C91.5257 20.0313 91.158 19.9107 91.158 19.6002V12.7718Z" fill="white"/>
<path fill-rule="evenodd" clip-rule="evenodd" d="M21.6602 5.0124C20.0683 2.98623 17.0479 1.61743 13.5811 1.61743C9.32575 1.61743 5.7421 3.67912 4.64987 6.48902C1.94 7.45583 0 10.0437 0 13.0857C0 16.9534 3.13538 20.0888 7.00324 20.0888C8.3711 20.0888 9.64626 19.6952 10.7246 19.0173L11.0565 22.069C11.1329 22.7711 12.0289 23.0176 12.4535 22.4534L15.4865 18.4234C15.7176 18.46 15.9527 18.4844 16.1941 18.4844C18.1074 18.4844 19.7375 17.2883 20.3885 15.6047C23.6822 15.4104 26.2853 13.075 26.2853 10.2152C26.2853 7.73566 24.3272 5.65091 21.6602 5.0124Z" fill="white"/>
</svg>
