<svg width="101" height="28" viewBox="0 0 101 28" fill="none" xmlns="http://www.w3.org/2000/svg">
<path fill-rule="evenodd" clip-rule="evenodd" d="M4.62703 0C2.07155 0 0 2.07155 0 4.62703V22.9373C0 25.4927 2.07155 27.5643 4.62703 27.5643H22.9373C25.4928 27.5643 27.5643 25.4927 27.5643 22.9373V4.62703C27.5643 2.07155 25.4928 0 22.9373 0H4.62703ZM11.1528 17.517C11.1528 18.9556 12.325 20.1279 13.7656 20.1279C15.2056 20.1279 16.377 18.9556 16.377 17.517C16.377 16.8554 16.13 16.2262 15.6822 15.7423L13.7656 13.8265L13.7651 13.8271L12.2004 12.263L12.2014 12.262L9.34364 9.40444C10.1345 8.6123 10.9263 7.82116 11.7183 7.03035L14.0207 4.72851L15.5054 6.21264L12.3922 9.32419L13.7656 10.6956L16.3023 8.20394L17.1275 9.02621L17.87 9.76622L15.3297 12.2606L17.2769 14.2084V14.209C18.1366 15.133 18.5918 16.2966 18.5918 17.5175C18.5918 20.1774 16.426 22.341 13.7656 22.341C11.1036 22.341 8.93929 20.1774 8.93929 17.5175C8.93929 16.2984 9.39455 15.1363 10.2223 14.2413L11.2985 13.1651L12.8631 14.7292L11.8184 15.7744C11.3996 16.2272 11.1528 16.8568 11.1528 17.517Z" fill="white"/>
<path d="M38.7554 19.8108H41.6921V16.2798H46.419V13.5527H41.6921V10.8491H47.5028V8.06372H38.7554V19.8108Z" fill="white"/>
<path d="M87.5818 13.9646C87.5818 17.488 90.216 20.1444 93.7171 20.1444C95.1509 20.1444 96.4624 19.6553 97.5072 18.7328L97.6294 18.6217L97.9406 19.7776H100.252V8.14057H98.0184L97.6628 9.32984L97.5516 9.2298C96.4846 8.30729 95.1509 7.80713 93.706 7.80713C90.216 7.80713 87.5818 10.4524 87.5818 13.9646ZM97.4071 13.9646C97.4071 15.9653 95.9622 17.4102 93.9838 17.4102C92.0276 17.4102 90.5605 15.9208 90.5605 13.9646C90.5605 11.964 92.0054 10.5191 93.9838 10.5191C95.9622 10.5191 97.4071 11.964 97.4071 13.9646Z" fill="white"/>
<path d="M54.2498 8.06274H51.2822V19.8776H54.2498V8.06274Z" fill="white"/>
<path d="M78.4799 7.81812C74.9009 7.81812 72.189 10.4634 72.189 13.9645C72.189 17.4767 74.8898 20.122 78.4799 20.122C82.0477 20.122 84.7485 17.4767 84.7485 13.9645C84.7374 10.4634 82.0477 7.81812 78.4799 7.81812ZM81.8587 13.9645C81.8587 15.9318 80.4138 17.4212 78.4799 17.4212C76.5348 17.4212 75.0788 15.9429 75.0788 13.9645C75.0788 12.0083 76.5459 10.5301 78.4799 10.5301C80.3916 10.519 81.8587 11.9861 81.8587 13.9645Z" fill="white"/>
<path d="M65.7878 14.3757L61.2308 8.05151H58.6411V19.8553H61.5532V13.3643L66.1769 19.7552L66.2546 19.8553H68.6999V8.06263H65.7767V14.3757H65.7878Z" fill="white"/>
<path d="M38.5972 19.832H41.5339V16.3009H46.2608V13.5739H41.5339V10.8702H47.3446V8.08496H38.5972V19.832Z" fill="white"/>
</svg>
