<svg width="138" height="32" viewBox="0 0 138 32" fill="none" xmlns="http://www.w3.org/2000/svg">
<path d="M38.7255 21.9535V8.57201H39.9141C40.1788 8.57191 40.4332 8.6767 40.623 8.8641C40.8129 9.0515 40.9232 9.30672 40.9306 9.57548L40.9562 10.4663C41.579 9.23329 42.6041 8.57201 44.0571 8.57201C44.692 8.5645 45.3163 8.73701 45.8599 9.07014C45.9139 9.10335 46.0305 9.16543 46.2082 9.25784L45.5173 11.2965C45.0167 11.0125 44.4513 10.8671 43.878 10.8749C43.4954 10.8757 43.117 10.9565 42.7665 11.1122C42.416 11.268 42.1008 11.4954 41.8406 11.7802C41.2505 12.3837 40.9022 13.3684 40.9022 14.7285V21.9477C40.9022 22.039 40.8666 22.1266 40.8032 22.1912C40.7398 22.2559 40.6537 22.2924 40.5638 22.2928H39.0653C38.9761 22.2928 38.8905 22.2573 38.827 22.1938C38.7634 22.1303 38.727 22.044 38.7255 21.9535V21.9535Z" fill="white"/>
<path d="M53.4192 22.298C51.588 22.298 50.1321 21.6064 49.0487 20.3459C47.9653 19.0854 47.425 17.4452 47.425 15.4369C47.425 13.3192 47.971 11.6598 49.0629 10.4585C50.1534 9.25577 51.6065 8.5815 53.4192 8.5815C54.16 8.56972 54.8955 8.70879 55.5824 8.9905C56.2693 9.27221 56.8937 9.69085 57.4187 10.2217C58.467 11.2622 58.9907 12.799 58.9897 14.8319C58.9897 15.1842 58.9755 15.5538 58.9456 15.9191C58.9456 15.9407 58.9456 15.9638 58.9456 15.9898C58.9382 16.0755 58.8995 16.1553 58.8372 16.2135C58.7749 16.2717 58.6934 16.3042 58.6087 16.3046H49.9828C49.9327 16.3046 49.8846 16.3248 49.8491 16.3608C49.8136 16.3969 49.7937 16.4457 49.7937 16.4966C49.793 16.5038 49.793 16.5111 49.7937 16.5183C49.9084 17.6041 50.2847 18.4853 50.9226 19.162C51.2494 19.5126 51.6454 19.7892 52.0847 19.9738C52.5239 20.1584 52.9966 20.2468 53.4718 20.2333C54.5017 20.2503 55.4996 19.87 56.2642 19.1692C56.2947 19.1415 56.3345 19.127 56.3754 19.1286C56.4162 19.1302 56.4548 19.1479 56.4831 19.1778V19.1778L57.6632 20.4412L57.6845 20.4643C57.709 20.4892 57.7228 20.5229 57.7228 20.5581C57.7228 20.5933 57.709 20.6271 57.6845 20.652V20.652C56.5238 21.7368 54.9964 22.3262 53.4192 22.298V22.298ZM49.9231 14.5215H56.931C56.9891 14.5215 57.0448 14.498 57.0858 14.4563C57.1269 14.4146 57.1499 14.3581 57.1499 14.2991V14.289C57.095 13.0454 56.7395 12.1353 56.0836 11.5587C55.4102 10.9548 54.5393 10.6274 53.641 10.6404C52.5159 10.6404 51.5913 10.9638 50.8671 11.6107C50.1961 12.2113 49.8032 13.0887 49.6885 14.2428V14.2572C49.6829 14.3207 49.7022 14.3838 49.7421 14.433C49.782 14.4822 49.8394 14.5134 49.9018 14.52L49.9231 14.5215Z" fill="white"/>
<path d="M69.9576 21.9529V14.1851C69.9576 12.9954 69.7756 12.1204 69.2709 11.5587C68.7662 10.9971 68.0794 10.7184 67.2079 10.7184C65.1918 10.7184 64.107 11.8576 64.107 14.1331V21.9529C64.107 22.0444 64.0712 22.1322 64.0075 22.1969C63.9438 22.2617 63.8573 22.298 63.7672 22.298H62.2644C62.2199 22.298 62.1757 22.2891 62.1346 22.2717C62.0934 22.2544 62.0561 22.2289 62.0246 22.1968C61.9932 22.1648 61.9683 22.1267 61.9514 22.0849C61.9345 22.043 61.9258 21.9982 61.926 21.9529V8.57145H63.0848C63.3548 8.57145 63.6137 8.68036 63.8046 8.87423C63.9955 9.06811 64.1028 9.33106 64.1028 9.60524V10.4152C64.9061 9.31214 66.1103 8.56567 67.5619 8.56567C69.1003 8.56567 70.2633 9.11289 71.0609 10.0528C71.8585 10.9928 72.1301 12.4972 72.1301 14.5677V21.9472C72.1301 22.0387 72.0943 22.1265 72.0305 22.1912C71.9668 22.2559 71.8804 22.2922 71.7903 22.2922H70.2917C70.2035 22.2911 70.1191 22.255 70.0567 22.1916C69.9943 22.1282 69.9587 22.0426 69.9576 21.9529V21.9529Z" fill="white"/>
<path d="M76.5295 21.9538V10.6312H74.6926C74.6027 10.6312 74.5165 10.595 74.4528 10.5306C74.3891 10.4662 74.3532 10.3788 74.3528 10.2876V8.91737C74.3528 8.82585 74.3886 8.73807 74.4523 8.67336C74.516 8.60864 74.6025 8.57229 74.6926 8.57229H76.5295V3.35859C76.5295 3.33603 76.5339 3.31369 76.5424 3.29284C76.5509 3.272 76.5633 3.25306 76.5791 3.2371C76.5948 3.22115 76.6134 3.20849 76.6339 3.19985C76.6545 3.19122 76.6765 3.18678 76.6987 3.18678C76.7208 3.18656 76.7427 3.19079 76.7632 3.19922C76.7837 3.20764 76.8024 3.2201 76.8181 3.23587L78.5058 4.9396C78.5695 5.00328 78.6201 5.07925 78.6545 5.16305C78.6889 5.24686 78.7065 5.33681 78.7062 5.42761V8.57229H80.1422C80.4111 8.57229 80.6689 8.68075 80.859 8.87381C81.0491 9.06687 81.1559 9.32872 81.1559 9.60175V10.3511C81.1559 10.4254 81.1269 10.4966 81.0752 10.5492C81.0234 10.6017 80.9533 10.6312 80.8801 10.6312H78.7062V21.9538C78.7064 21.999 78.6978 22.0439 78.6809 22.0857C78.664 22.1276 78.6391 22.1656 78.6076 22.1977C78.5762 22.2298 78.5388 22.2552 78.4977 22.2726C78.4565 22.2899 78.4124 22.2989 78.3679 22.2989H76.8693C76.7792 22.2989 76.6928 22.2625 76.629 22.1978C76.5653 22.1331 76.5295 22.0453 76.5295 21.9538V21.9538Z" fill="white"/>
<path d="M91.4351 18.6887C91.4468 18.3569 91.3837 18.0268 91.2506 17.7236C91.1175 17.4203 90.918 17.1519 90.6673 16.9388C90.1536 16.4989 89.3816 16.1548 88.3513 15.9065C87.3209 15.6581 86.5205 15.3723 85.9499 15.0488C85.4323 14.7758 84.9949 14.3689 84.6817 13.8692C84.394 13.3558 84.2508 12.7719 84.268 12.1814C84.2572 11.6902 84.355 11.2029 84.554 10.7552C84.7531 10.3075 85.0483 9.91068 85.4182 9.59402C86.185 8.91253 87.166 8.57178 88.3612 8.57178C89.6578 8.57178 90.7483 8.92408 91.4891 9.66621C92.2298 10.4083 92.6137 11.3151 92.6265 12.4904C92.6265 12.6102 92.5739 12.6607 92.4843 12.6607H92.072C91.7265 12.6607 91.4223 12.2983 91.3242 11.9706C91.1621 11.4681 91.0654 11.0869 90.5152 10.5903C89.965 10.0936 89.2271 9.8207 88.3612 9.8207C87.4953 9.8207 86.8371 10.0344 86.3238 10.4632C86.0771 10.6618 85.8793 10.9161 85.746 11.2057C85.6128 11.4954 85.5477 11.8127 85.5561 12.1323C85.5561 12.7926 85.7693 13.3042 86.1959 13.6671C86.6224 14.03 87.3996 14.362 88.5276 14.6633C89.6545 14.9656 90.4995 15.288 91.0626 15.6307C91.5903 15.9161 92.0269 16.3486 92.321 16.8772C92.6152 17.4059 92.7547 18.0088 92.7232 18.6151C92.7232 19.7326 92.3275 20.6259 91.536 21.2949C90.7446 21.9638 89.7128 22.2983 88.4408 22.2983C87.0873 22.2983 85.9897 21.9249 85.148 21.1779C84.6857 20.7366 84.3296 20.1932 84.1073 19.5897C83.963 19.1847 83.8852 18.7584 83.877 18.3278C83.8754 18.3098 83.8775 18.2916 83.8831 18.2744C83.8887 18.2572 83.8977 18.2414 83.9096 18.2279C83.9214 18.2143 83.9359 18.2034 83.952 18.1958C83.9682 18.1881 83.9857 18.1839 84.0035 18.1834H85.0584C85.0923 18.1829 85.1252 18.1947 85.1513 18.2167C85.1774 18.2386 85.1949 18.2693 85.2006 18.3032C85.2393 18.6561 85.3156 19.0037 85.4281 19.3399C85.5848 19.7282 85.8282 20.0741 86.139 20.3506C86.7219 20.8319 87.4935 21.0725 88.4536 21.0725C89.3493 21.0725 90.073 20.8482 90.6247 20.3997C90.883 20.1996 91.0911 19.9403 91.232 19.643C91.3728 19.3456 91.4424 19.0186 91.4351 18.6887V18.6887Z" fill="white"/>
<path d="M108.324 21.9533V8.57178H108.687C108.82 8.57178 108.952 8.59853 109.076 8.6505C109.199 8.70247 109.311 8.77864 109.406 8.87465C109.5 8.97067 109.575 9.08465 109.626 9.21007C109.677 9.33548 109.703 9.46988 109.703 9.60557V10.9714C110.64 9.19551 111.638 8.57178 113.32 8.57178C113.806 8.58216 114.284 8.70303 114.718 8.92552C114.835 8.9852 114.947 9.05424 115.053 9.13199C115.08 9.15037 115.101 9.17597 115.113 9.20585C115.126 9.23574 115.13 9.26869 115.126 9.30092L114.955 10.3881C114.953 10.4015 114.949 10.4144 114.942 10.426C114.935 10.4376 114.926 10.4477 114.915 10.4558C114.905 10.4639 114.892 10.4697 114.879 10.4729C114.867 10.4762 114.853 10.4768 114.84 10.4748C114.828 10.4731 114.817 10.4692 114.807 10.4632C114.665 10.391 114.563 10.3376 114.482 10.3044C114.07 10.1441 113.632 10.0643 113.191 10.069C112.304 10.069 111.502 10.4507 110.784 11.214C110.065 11.9773 109.705 13.156 109.703 14.75V21.9533C109.703 21.9985 109.695 22.0433 109.678 22.0852C109.661 22.1271 109.636 22.1651 109.604 22.1972C109.573 22.2292 109.536 22.2547 109.495 22.272C109.453 22.2894 109.409 22.2983 109.365 22.2983H108.664C108.574 22.2983 108.487 22.262 108.424 22.1973C108.36 22.1326 108.324 22.0448 108.324 21.9533V21.9533Z" fill="white"/>
<path d="M121.121 22.2995C119.483 22.2995 118.184 21.6093 117.223 20.3402C116.262 19.071 115.781 17.4352 115.781 15.4311C115.781 13.3135 116.27 11.654 117.248 10.4528C118.227 9.25005 119.523 8.56567 121.121 8.56567C122.576 8.56567 123.75 9.19518 124.644 10.2867C125.539 11.3783 125.987 13.0098 125.987 15.177C125.986 15.3789 125.907 15.5725 125.766 15.7151C125.625 15.8578 125.435 15.9379 125.236 15.9379H117.334C117.296 15.9379 117.26 15.9531 117.233 15.9802C117.207 16.0073 117.192 16.044 117.192 16.0823C117.192 16.0823 117.192 16.0823 117.192 16.0938C117.206 16.2556 117.217 16.3826 117.227 16.4664C117.388 17.838 117.773 18.9045 118.382 19.6659C119.067 20.5206 120.003 20.948 121.19 20.948C122.08 20.951 122.953 20.6966 123.706 20.2146C123.793 20.1611 123.914 20.0702 124.07 19.9633C124.092 19.9473 124.118 19.9403 124.145 19.9438C124.171 19.9473 124.195 19.961 124.212 19.9821L124.453 20.2853L124.603 20.4744L124.814 20.7401C124.83 20.7613 124.838 20.7883 124.835 20.8152C124.833 20.8422 124.82 20.8671 124.799 20.8845V20.8845C124.652 21.0048 124.536 21.0943 124.454 21.153C123.447 21.8822 122.335 22.2995 121.121 22.2995ZM117.358 14.8031H124.528C124.55 14.8031 124.572 14.7986 124.593 14.7898C124.614 14.7811 124.632 14.7683 124.648 14.7522C124.664 14.7361 124.676 14.717 124.685 14.696C124.693 14.675 124.697 14.6525 124.697 14.6298C124.697 14.3872 124.683 14.1966 124.674 14.0768C124.58 12.6744 124.23 11.6531 123.625 11.013C122.924 10.268 122.108 9.89545 121.18 9.89545C120.031 9.89545 119.097 10.3069 118.379 11.1299C117.773 11.823 117.394 12.8038 117.241 14.0725C117.226 14.1981 117.209 14.3815 117.192 14.6226C117.188 14.6679 117.203 14.7127 117.232 14.7471C117.262 14.7814 117.303 14.8026 117.348 14.8059L117.358 14.8031Z" fill="white"/>
<path d="M133.136 22.2995C131.497 22.2995 130.197 21.6093 129.236 20.3402C128.275 19.071 127.795 17.4352 127.795 15.4311C127.795 13.3135 128.284 11.654 129.262 10.4528C130.24 9.25005 131.537 8.56567 133.136 8.56567C134.589 8.56567 135.764 9.19518 136.658 10.2867C137.552 11.3783 138 13.0098 138 15.177C138 15.2954 138 15.4398 137.99 15.6102C137.987 15.6993 137.949 15.7836 137.886 15.8453C137.823 15.907 137.738 15.9412 137.65 15.9408H129.347C129.309 15.9408 129.273 15.956 129.247 15.9831C129.22 16.0102 129.205 16.0469 129.205 16.0852V16.0967C129.219 16.2628 129.232 16.3855 129.242 16.4793C129.403 17.8471 129.787 18.9103 130.395 19.6688C131.08 20.5235 132.016 20.9509 133.203 20.9509C134.104 20.9533 134.987 20.6927 135.747 20.2001C135.826 20.1496 135.938 20.0716 136.085 19.9662C136.106 19.9498 136.133 19.9426 136.16 19.9461C136.186 19.9496 136.211 19.9636 136.227 19.985C136.314 20.0962 136.382 20.1813 136.43 20.242L136.618 20.4773L136.83 20.743C136.846 20.7645 136.853 20.7915 136.85 20.8184C136.848 20.8452 136.835 20.87 136.814 20.8874C136.682 20.9942 136.58 21.0751 136.506 21.1285C135.489 21.8721 134.363 22.2995 133.136 22.2995ZM129.371 14.8031H136.541C136.564 14.8031 136.586 14.7986 136.606 14.7898C136.627 14.7811 136.646 14.7683 136.661 14.7522C136.677 14.7361 136.69 14.717 136.698 14.696C136.706 14.675 136.711 14.6525 136.71 14.6298C136.71 14.3901 136.696 14.2082 136.688 14.0826C136.593 12.6772 136.243 11.654 135.638 11.013C134.937 10.268 134.122 9.89545 133.193 9.89545C132.044 9.89545 131.111 10.3069 130.392 11.1299C129.785 11.8259 129.406 12.8096 129.255 14.0811C129.24 14.2053 129.223 14.3858 129.206 14.6226C129.203 14.6679 129.218 14.7127 129.247 14.7471C129.277 14.7814 129.318 14.8026 129.363 14.8059L129.371 14.8031Z" fill="white"/>
<path d="M96.7914 10.9806C97.69 9.50643 99.025 8.57227 100.516 8.57227C103.218 8.57227 105.414 11.6448 105.414 15.4348C105.414 19.2249 103.228 22.2988 100.516 22.2988C99.025 22.2988 97.69 21.3632 96.7914 19.8905V26.4513C96.7912 26.523 96.7637 26.5918 96.7146 26.6433L95.6526 27.758C95.6388 27.7722 95.6212 27.782 95.602 27.7861C95.5828 27.7903 95.5628 27.7885 95.5445 27.7811C95.5262 27.7731 95.5106 27.7598 95.4998 27.7428C95.4889 27.7259 95.4832 27.706 95.4834 27.6858V8.57227H95.7678C96.0377 8.57227 96.2967 8.68118 96.4876 8.87505C96.6785 9.06893 96.7857 9.33188 96.7857 9.60606L96.7914 10.9806ZM100.47 20.9257C102.574 20.9257 104.28 18.4712 104.28 15.4392C104.28 12.4071 102.574 9.95257 100.47 9.95257C98.3653 9.95257 96.6606 12.4071 96.6606 15.4392C96.6606 18.4712 98.3653 20.9257 100.47 20.9257Z" fill="white"/>
<path fill-rule="evenodd" clip-rule="evenodd" d="M14.1417 0.47442L0.467169 14.3613C0.319072 14.5114 0.20158 14.6898 0.12142 14.8862C0.041259 15.0825 0 15.2929 0 15.5055C0 15.718 0.041259 15.9285 0.12142 16.1248C0.20158 16.3212 0.319072 16.4995 0.467169 16.6497L14.1417 30.538C14.4408 30.841 14.846 31.0112 15.2685 31.0112C15.691 31.0112 16.0962 30.841 16.3953 30.538L30.0712 16.6497C30.3696 16.346 30.5372 15.9345 30.5372 15.5055C30.5372 15.0765 30.3696 14.665 30.0712 14.3613L16.3953 0.47442C16.2474 0.324025 16.0717 0.204709 15.8784 0.123304C15.685 0.0418994 15.4778 0 15.2685 0C15.0592 0 14.852 0.0418994 14.6586 0.123304C14.4653 0.204709 14.2896 0.324025 14.1417 0.47442V0.47442Z" fill="white"/>
<path fill-rule="evenodd" clip-rule="evenodd" d="M10.4908 26.8283V13.8872H12.6136L13.6756 14.9658V30.064L10.4908 26.8283Z" fill="#D9D9D9"/>
<path fill-rule="evenodd" clip-rule="evenodd" d="M7.3042 23.5927V13.8872H10.4904V26.8283L7.3042 23.5927Z" fill="#D9D9D9"/>
<path fill-rule="evenodd" clip-rule="evenodd" d="M22.1702 6.33789L24.8261 9.03353L13.6752 20.3576L7.3042 13.8805H12.6131L13.6752 14.959L22.1702 6.33789Z" fill="black"/>
</svg>
