<svg width="107" height="20" viewBox="0 0 107 20" fill="none" xmlns="http://www.w3.org/2000/svg">
<path d="M5.26588 0L1.58312 1.086L1.07123 1.6L0 5.32267L14.5196 20L18.2023 18.9173L18.7135 18.4027L19.7848 14.6773L5.26588 0Z" fill="white"/>
<path d="M18.7135 1.6L18.2023 1.086L14.5196 0L0 14.6773L1.07123 18.4027L1.58247 18.9173L5.26522 20L19.7854 5.32267L18.7135 1.6Z" fill="#D9D9D9"/>
<path d="M27.9021 3.62082H33.9019C35.9511 3.62082 37.4702 4.10323 38.4599 5.0667C39.4495 6.03085 39.9436 7.52665 39.9436 9.55412V10.4535C39.9436 12.4816 39.4495 13.9774 38.4599 14.9409C37.4702 15.9051 35.9511 16.3868 33.9019 16.3868H27.9021V3.62217V3.62082ZM33.9019 13.377C34.9902 13.377 35.7491 13.1165 36.1805 12.5957C36.612 12.0748 36.8274 11.2638 36.8274 10.1647V9.55412C36.8274 8.5974 36.612 7.87277 36.1805 7.38024C35.7497 6.88771 34.9902 6.64145 33.9019 6.64145H31.0183V13.3884L33.9019 13.3776V13.377ZM44.629 10.133C44.629 7.96183 45.1698 6.27711 46.2515 5.0775C47.3318 3.87856 48.8236 3.27808 50.7248 3.27808C52.632 3.27808 54.1238 3.87856 55.1981 5.0775C56.2718 6.27711 56.8126 7.96183 56.8199 10.1323V9.88607C56.8199 12.1207 56.2798 13.8196 55.1981 14.9841C54.1165 16.148 52.6254 16.7295 50.7248 16.7295C48.8162 16.7295 47.3251 16.148 46.2515 14.9841C45.1772 13.8202 44.6363 12.1207 44.629 9.88607V10.1323V10.133ZM50.7241 13.8594C51.2122 13.875 51.6976 13.7798 52.1446 13.5807C52.514 13.4053 52.8314 13.1354 53.0675 12.7994C53.3142 12.4391 53.4843 12.0303 53.5656 11.5998C53.6623 11.0951 53.709 10.5824 53.703 10.0682V9.92925C53.705 9.42787 53.6482 8.92801 53.5336 8.44019C53.4383 8.01047 53.2619 7.60339 53.0141 7.24126C52.7746 6.90268 52.4583 6.62712 52.0919 6.43769C51.6607 6.23974 51.1926 6.13734 50.7191 6.13734C50.2456 6.13734 49.7776 6.23974 49.3464 6.43769C48.9796 6.62661 48.6635 6.90256 48.4241 7.24058C48.1761 7.60278 47.9997 8.01015 47.9046 8.44019C47.79 8.92799 47.7331 9.42786 47.7353 9.92925V10.0682C47.7299 10.5824 47.7759 11.0951 47.8733 11.5998C47.954 12.0303 48.124 12.4391 48.3714 12.7994C48.6068 13.1361 48.9249 13.4053 49.2937 13.5807C49.7439 13.7814 50.2331 13.8766 50.7248 13.8594H50.7241ZM64.4522 3.62082L67.2397 8.47191H67.8018L70.5893 3.62082H73.9716L70.5686 9.76868V10.1964L73.9716 16.3969H70.59L67.8025 11.4925H67.2403L64.4522 16.3976H61.0712L64.4735 10.1971V9.76868L61.0705 3.62082H64.4522ZM78.9538 3.62082H89.6816V6.64145H82.07V8.48338H89.1087V11.5033H82.07V13.3884H89.6816V16.4084H78.9538V3.62082ZM95.2465 3.62082H98.3628V13.377H106.981V16.3976H95.2465V3.62082Z" fill="white"/>
</svg>
