<svg width="93" height="33" viewBox="0 0 93 33" fill="none" xmlns="http://www.w3.org/2000/svg">
<path fill-rule="evenodd" clip-rule="evenodd" d="M46.6956 24.8488C46.6956 24.6376 46.726 24.4002 46.7364 24.1793C33.8367 23.8138 22.2378 23.8764 21.0099 23.8764C19.319 23.8764 19.319 25.6753 21.0099 25.6753C31.1797 25.6753 39.6887 25.9723 46.8568 26.4468C46.757 25.8931 46.6956 25.3455 46.6956 24.8488Z" fill="white"/>
<mask id="mask0_1727_1934" style="mask-type:alpha" maskUnits="userSpaceOnUse" x="56" y="24" width="30" height="9">
<path d="M56.0603 24.6802H85.9472V33.0001H56.0603V24.6802Z" fill="white"/>
</mask>
<g mask="url(#mask0_1727_1934)">
<path fill-rule="evenodd" clip-rule="evenodd" d="M56.8005 24.6802C56.6205 25.5526 56.3765 26.359 56.0603 27.0656C81.234 29.3768 84.5795 33.7401 85.5279 32.8924C86.2192 32.2723 86.2734 30.2246 83.9824 28.1787C81.7032 26.2456 69.7201 25.2217 56.8005 24.6802Z" fill="white"/>
</g>
<mask id="mask1_1727_1934" style="mask-type:alpha" maskUnits="userSpaceOnUse" x="0" y="0" width="20" height="25">
<path d="M0 0.0280762H19.8248V24.5527H0V0.0280762Z" fill="white"/>
</mask>
<g mask="url(#mask1_1727_1934)">
<path fill-rule="evenodd" clip-rule="evenodd" d="M13.4167 2.5278C20.2833 3.7064 16.7713 10.439 9.13936 11.6411C10.935 7.93902 12.5994 4.4032 13.4167 2.5278ZM14.2101 21.5239C12.1244 21.5239 9.8514 17.8431 8.95445 14.5014C20.2576 13.2757 24.7734 1.08487 12.5199 0.10015C12.0447 0.0275879 11.5696 0.0275879 11.2253 0.0275879H10.8812C3.09024 0.0275879 0.634244 5.9421 2.53549 7.64916C4.04076 9.04506 5.73094 8.13078 5.07076 7.52977C4.01504 6.54311 5.57408 3.03283 9.8514 2.45524C8.69004 4.78904 6.92036 8.49088 5.20403 11.9543C2.53549 17.2676 0 22.3402 0 22.7963C0 23.4227 1.58476 24.5523 2.53549 24.5523C2.74825 24.5523 4.56979 20.9933 6.7093 16.6413C7.65981 20.3687 9.95661 24.5523 13.2318 24.5523C15.7156 24.5523 17.4855 21.931 16.6123 21.1382C15.8727 20.441 15.9802 21.5239 14.2101 21.5239Z" fill="white"/>
</g>
<path fill-rule="evenodd" clip-rule="evenodd" d="M37.2081 7.73051C38.7003 6.23947 39.4832 6.00079 39.4832 5.03778C39.4832 4.17282 38.0887 3.57207 37.3794 3.78928C36.5724 4.03008 35.2019 6.0242 35.2019 7.17676C35.2019 7.77751 36.6461 8.25873 37.2081 7.73051Z" fill="white"/>
<mask id="mask2_1727_1934" style="mask-type:alpha" maskUnits="userSpaceOnUse" x="16" y="0" width="77" height="30">
<path d="M16.6494 0.468018H92.9998V29.7233H16.6494V0.468018Z" fill="white"/>
</mask>
<g mask="url(#mask2_1727_1934)">
<path fill-rule="evenodd" clip-rule="evenodd" d="M68.6466 11.9137C68.1654 12.761 67.7383 13.681 67.3898 14.5756C66.6669 15.8109 65.3033 17.8187 64.0989 17.8187C61.5592 17.8187 65.3294 10.753 67.7906 10.753C68.6205 10.753 68.701 11.3579 68.6466 11.9137ZM52.6465 27.1107C50.8279 27.1107 51.5226 23.2625 53.2345 18.6167C53.4218 19.1486 53.716 19.6806 54.1972 20.118C54.4107 23.3848 53.583 27.1107 52.6465 27.1107ZM25.1025 11.9137C24.6211 12.761 24.1942 13.681 23.8457 14.5756C23.1226 15.8109 21.759 17.8187 20.5548 17.8187C18.0151 17.8187 21.7851 10.753 24.2465 10.753C25.0762 10.753 25.1567 11.3579 25.1025 11.9137ZM63.3191 2.79092C64.0401 2.79092 60.2697 7.12376 57.0332 10.3649C59.333 6.15433 61.7943 2.79092 63.3191 2.79092ZM84.4072 2.76735C84.6229 2.76735 82.6691 7.46067 79.3781 9.66341C81.2513 6.13076 83.4727 2.76735 84.4072 2.76735ZM91.9279 2.76735C92.1436 2.76735 90.19 7.46067 86.8989 9.66341C88.772 6.13076 90.9915 2.76735 91.9279 2.76735ZM90.9133 12.954C89.7086 12.954 86.5527 18.4 84.4115 17.7456C83.5033 17.4798 84.466 14.7943 86.0169 11.4782C89.0945 10.6802 92.9998 5.01742 92.9998 2.37923C92.9998 1.43531 91.4752 0.468018 90.6191 0.468018C87.7789 0.468018 82.3587 9.13001 80.9245 15.1297C79.61 16.5626 78.0908 18.1122 76.8906 17.7456C75.9824 17.4798 76.9451 14.7943 78.4959 11.4782C81.5735 10.6802 85.4787 5.01742 85.4787 2.37923C85.4787 1.43531 83.9541 0.468018 83.0981 0.468018C80.2263 0.468018 74.7105 9.32767 73.3512 15.3322C72.3939 16.5883 71.3563 17.8187 70.4131 17.8187C68.3788 17.8187 72.846 10.9462 72.846 10.026C72.846 9.03497 72.0443 8.74344 71.4019 8.74344C71.0013 8.74344 70.4392 9.27723 69.7968 10.099C69.6356 9.61609 69.1824 8.74344 67.9781 8.74344C64.8829 8.74344 61.9958 11.6171 60.7892 14.7497C59.5933 16.3482 58.1591 18.3271 56.8197 18.3271C56.4449 18.3271 56.1226 18.2306 55.8025 18.0845C55.5607 16.8749 55.1862 15.8346 54.733 15.1803C59.7341 10.6309 64.8698 5.47643 64.8698 2.64505C64.8698 1.79987 63.4519 0.806871 62.1144 0.806871C59.4835 0.806871 54.0982 7.81841 50.8147 15.0375C49.7997 16.3789 48.6749 17.7949 47.6609 17.7949C45.8944 17.7949 49.3728 12.688 49.3728 11.2613C49.3728 9.54325 47.6065 8.74344 46.537 8.74344C44.8796 8.74344 43.5944 9.90567 40.6801 14.4062C41.0263 13.6553 41.4554 12.8574 42.6577 10.5836C43.2482 9.61609 41.8302 8.76895 40.5994 8.76895C39.6511 8.76895 38.037 12.0001 37.0383 14.6395C35.9537 16.0779 34.7079 17.7949 33.5881 17.7949C31.5821 17.7949 36.5307 10.9697 36.5307 10.0515C36.5307 8.9857 35.3004 8.79271 34.712 8.79271C34.0901 8.79271 32.2333 11.2058 30.9931 13.782C29.7723 15.2882 28.2227 17.8187 26.869 17.8187C24.8345 17.8187 29.3017 10.9462 29.3017 10.026C29.3017 9.03497 28.5002 8.74344 27.8576 8.74344C27.457 8.74344 26.8951 9.27723 26.2525 10.099C26.0913 9.61609 25.6383 8.74344 24.4338 8.74344C20.3672 8.74344 16.6494 13.7045 16.6494 17.6964C16.6494 19.6806 17.6664 20.8432 19.298 20.8432C20.7965 20.8432 22.1599 19.6335 23.1508 18.4709C23.3099 19.4401 23.9264 20.8432 25.8516 20.8432C27.2847 20.8432 28.7073 19.7831 29.8791 18.4325C30.0424 19.3924 30.6325 20.8195 32.5971 20.8195C33.8963 20.8195 35.1858 19.9412 36.2859 18.7682C36.5591 20.0894 37.3487 20.8432 38.5127 20.8432C38.8875 20.8432 39.2884 20.7704 39.3144 20.5535C42.0698 14.0198 45.2541 11.8406 45.548 11.8406C46.2692 11.8406 43.8884 15.2041 43.8884 17.7949C43.8884 18.5201 44.1562 20.8432 46.6438 20.8432C47.42 20.8432 48.1933 20.5277 48.9263 20.0294C48.3959 21.844 48.0726 23.5714 48.0726 25.0773C48.0726 26.7956 48.9001 29.7233 51.3874 29.7233C54.9203 29.7233 56.2031 25.0538 56.0966 20.8668H56.3383C57.7465 20.8668 59.1458 19.8349 60.3067 18.5127C60.5627 19.9718 61.4611 20.8432 62.8421 20.8432C64.3406 20.8432 65.704 19.6335 66.6951 18.4709C66.8542 19.4401 67.4705 20.8432 69.3957 20.8432C70.7201 20.8432 72.0335 19.9357 73.151 18.7338C73.6582 20.9603 75.8474 20.8195 75.8474 20.8195C77.6781 20.9392 79.3422 19.9881 80.6698 18.7166C81.1705 20.9589 83.3683 20.8195 83.3683 20.8195C88.5586 21.1585 92.464 12.954 90.9133 12.954Z" fill="white"/>
</g>
</svg>
