<svg width="36" height="36" viewBox="0 0 36 36" fill="none" xmlns="http://www.w3.org/2000/svg">
<path d="M29.5358 23.6218L28.943 23.9463C26.8292 25.1025 25.1013 26.8305 23.9448 28.9441L23.6208 29.5364L27.7145 30.737C29.5595 31.2765 31.2761 29.5647 30.7317 27.719L29.5358 23.6218Z" fill="white"/>
<path d="M5.75198 11.6671L6.34428 11.3426C8.45772 10.1864 10.1859 8.45839 11.342 6.34483L11.6665 5.75266L7.57339 4.55189C5.72758 4.01236 4.01169 5.7242 4.55527 7.5699L5.75198 11.6671Z" fill="white"/>
<path d="M23.9446 6.34403C25.1011 8.45747 26.829 10.1856 28.9428 11.3417L29.5345 11.6663L30.736 7.57314C31.2748 5.72744 29.5638 4.01144 27.7177 4.55502L23.624 5.75579L23.9446 6.34403Z" fill="white"/>
<path d="M11.3422 28.9441C10.186 26.8305 8.45789 25.1025 6.34445 23.9463L5.75216 23.6218L4.5514 27.7148C4.01187 29.5607 5.72382 31.2765 7.56952 30.733L11.6626 29.5322L11.3422 28.9441Z" fill="white"/>
<path d="M25.9302 3.8094L25.8818 3.33883C25.6748 1.42394 23.4353 0.498893 21.9341 1.70383L21.5691 2.00003L23.0256 4.66143L25.9302 3.8094Z" fill="white"/>
<path d="M13.7196 2.00407L13.3464 1.70383C11.8452 0.498893 9.60568 1.42394 9.3988 3.33883L9.3501 3.80534L12.2671 4.66143L13.7196 2.00407Z" fill="white"/>
<path d="M1.9866 13.7283L4.66015 12.2676L3.80823 9.36279L3.3254 9.4115C1.41051 9.61838 0.485465 11.8579 1.6904 13.359L1.9866 13.7283Z" fill="white"/>
<path d="M1.99558 21.5688L1.68723 21.9502C0.482292 23.4513 1.40734 25.6908 3.32223 25.8977L3.801 25.9504L4.65698 23.0294L1.99558 21.5688Z" fill="white"/>
<path d="M33.2843 21.5691L30.6272 23.0215L31.4822 25.9426L31.9535 25.8898C33.8682 25.6829 34.7929 23.4434 33.5881 21.9424L33.2843 21.5691Z" fill="white"/>
<path d="M33.2967 13.7238L33.5881 13.3586C34.7929 11.8576 33.8682 9.61804 31.9535 9.41116L31.4788 9.3584L30.6272 12.2632L33.2967 13.7238Z" fill="white"/>
<path d="M21.5615 33.3008L21.9348 33.601C23.4359 34.8059 25.6756 33.881 25.8826 31.966L25.9354 31.4791L23.0261 30.6272L21.5615 33.3008Z" fill="white"/>
<path d="M9.34717 31.4831L9.39993 31.9659C9.60681 33.8807 11.8462 34.8058 13.3474 33.6009L13.7287 33.2967L12.2682 30.6311L9.34717 31.4831Z" fill="white"/>
<path d="M34.0264 15.5084L28.3623 12.4131C26.0505 11.1475 24.1437 9.24492 22.8775 6.92865L19.782 1.26565C18.857 -0.421884 16.435 -0.421884 15.51 1.26565L12.4144 6.92865C11.1486 9.24098 9.2459 11.1475 6.92941 12.4131L1.26574 15.5084C-0.421912 16.4332 -0.421912 18.8551 1.26574 19.78L6.92941 22.8792C9.24185 24.1449 11.1486 26.0475 12.4144 28.3638L15.514 34.0268C16.4389 35.7143 18.8611 35.7143 19.7861 34.0268L22.8815 28.3597C24.1471 26.0475 26.0505 24.1408 28.3668 22.8753L34.0298 19.7759C35.7138 18.8551 35.7138 16.4332 34.0264 15.5084ZM21.2182 20.8104H20.0011V19.5041V17.3988V16.9647L18.1633 19.6988H17.149L15.2908 16.9647V20.8104H14.0737V14.4821H15.0839L17.6479 18.2831L20.212 14.4821H21.2182V20.8104Z" fill="white"/>
</svg>
