<svg width="103" height="20" viewBox="0 0 103 20" fill="none" xmlns="http://www.w3.org/2000/svg">
<path d="M0 0.151734H4.20526L7.79411 9.34303L11.3967 0.151734L14.9855 9.34303L18.5607 0.151734H22.7659L14.9855 20L11.3419 10.343L7.79411 20L0 0.151734ZM24.4508 0.11064H36.1625V4.00085H28.3547V7.90475H34.2037V11.795H28.3547V15.7126H36.1625V19.5891H24.4508V0.11064ZM46.9564 0.00105794L46.9701 0.0284532C49.5809 0.0389949 52.0837 1.07158 53.9424 2.90501L51.1617 5.68569C49.97 4.53506 48.5865 3.94605 46.9975 3.94605C45.4248 3.92599 43.9134 4.55533 42.8197 5.68569C41.669 6.85001 41.0937 8.2472 41.0937 9.86355C41.0684 11.4346 41.693 12.9463 42.8197 14.0414C44.1704 15.4094 46.106 16.0283 47.9999 15.6976C49.8937 15.3669 51.5051 14.1288 52.3123 12.384H46.7783V8.67183H56.7367C57.1053 11.6786 56.0637 14.6869 53.915 16.8221C51.9836 18.7398 49.6549 19.7123 46.9564 19.7123C44.341 19.753 41.826 18.7063 40.0116 16.8221C38.0802 14.9181 37.1213 12.6031 37.1213 9.86355C37.0835 7.24463 38.1294 4.72646 40.0116 2.90501C41.9156 0.959911 44.2305 0.00105794 46.9564 0.00105794ZM58.4627 0.151734H62.3666V15.6852H70.1607V19.5617H58.4627V0.151734ZM79.7766 0.00105794C82.3985 -0.0381446 84.9189 1.01366 86.7351 2.90501C88.6665 4.83642 89.6391 7.15136 89.6391 9.86355C89.6783 12.4855 88.6265 15.0058 86.7351 16.8221C84.8037 18.7398 82.4888 19.6986 79.7766 19.6986C77.1619 19.7287 74.6483 18.6897 72.8181 16.8221C70.8867 14.9044 69.9278 12.5757 69.9278 9.86355C69.89 7.24463 70.9359 4.72646 72.8181 2.90501C74.7495 0.959911 77.0644 0.00105794 79.7766 0.00105794ZM79.7766 3.93236C78.2016 3.90064 76.6858 4.53185 75.5987 5.67199C74.4344 6.83631 73.8591 8.2335 73.8591 9.84985C73.8358 11.4232 74.4656 12.9359 75.5987 14.0277C76.7494 15.1646 78.1329 15.7399 79.7766 15.7399C81.3396 15.7586 82.843 15.1405 83.9408 14.0277C85.1051 12.8771 85.6804 11.4799 85.6804 9.84985C85.7037 8.27648 85.0739 6.76382 83.9408 5.67199C82.7901 4.50767 81.393 3.93236 79.7766 3.93236ZM88.6939 0.151734H102.159V4.01454H97.3921V19.5617H93.4745V4.01454H88.6939V0.151734Z" fill="white"/>
</svg>
