<svg width="93" height="20" viewBox="0 0 93 20" fill="none" xmlns="http://www.w3.org/2000/svg">
<path d="M66.6439 2.30632L66.6439 0.518746L66.4745 0.519243C62.8316 0.529925 59.8816 3.52759 59.8816 7.22411C59.8816 8.33452 59.8911 9.44609 59.9006 10.5571L59.9006 10.559C59.9101 11.6708 59.9196 12.7821 59.9196 13.8925V14.0639H61.6645L61.645 7.22472V7.22423C61.6551 4.5346 63.7869 2.35198 66.4318 2.30814L66.4324 2.30812L66.6439 2.30632Z" fill="white"/>
<path fill-rule="evenodd" clip-rule="evenodd" d="M35.2892 0.519242C31.6939 0.519242 28.7687 3.42884 28.679 7.05275H28.676V20H30.4204L30.4203 11.7608C31.6286 13.0935 33.3628 13.929 35.2892 13.929C38.941 13.929 41.9016 10.9273 41.9016 7.22414C41.9016 3.52102 38.941 0.519242 35.2892 0.519242ZM30.4402 7.24341C30.4402 4.51749 32.6196 2.30749 35.3082 2.30749C37.9969 2.30749 40.1762 4.51749 40.1762 7.24341C40.1762 9.96934 37.9969 12.1793 35.3082 12.1793C32.6196 12.1793 30.4402 9.96934 30.4402 7.24341Z" fill="white"/>
<path d="M50.6048 0.519242C46.953 0.519242 43.9925 3.52102 43.9925 7.22414C43.9925 10.8902 46.8941 13.8689 50.4955 13.9281L50.497 13.9282L50.7158 13.9298L50.7159 12.1424L50.5488 12.1405C47.8856 12.1105 45.736 9.91214 45.736 7.20487C45.736 4.47894 47.9153 2.26894 50.604 2.26894C53.2424 2.26894 55.3904 4.39721 55.4697 7.05278L50.4541 7.05275V8.82173L57.0297 8.82173L57.0592 8.68761C57.1626 8.21639 57.2172 7.72662 57.2172 7.22414C57.2172 3.52102 54.2566 0.519242 50.6048 0.519242Z" fill="white"/>
<path fill-rule="evenodd" clip-rule="evenodd" d="M81.8137 0.519242C78.1619 0.519242 75.2014 3.52102 75.2014 7.22414C75.2014 10.9273 78.1619 13.929 81.8137 13.929C83.7397 13.929 85.4735 13.0939 86.6818 11.7617L86.6817 13.9098H88.4261L88.4252 7.11607L88.4252 7.11332C88.3668 3.46128 85.429 0.519242 81.8137 0.519242ZM76.9647 7.24341C76.9647 4.51749 79.1441 2.30749 81.8327 2.30749C84.4941 2.30749 86.6565 4.47288 86.7 7.16057L86.7001 7.16174L86.7007 7.68101C86.4825 10.2011 84.3767 12.1793 81.8327 12.1793C79.1441 12.1793 76.9647 9.96934 76.9647 7.24341Z" fill="white"/>
<path d="M14.5596 1.18556H12.8154V7.58557L12.8248 7.58572C13.0102 11.1208 15.8956 13.929 19.4277 13.929C22.9599 13.929 25.8453 11.1208 26.0306 7.58573L26.0401 7.58558V1.18556H24.2958L24.294 7.3761C24.2247 10.0406 22.0726 12.1793 19.4277 12.1793C16.8098 12.1793 14.6746 10.0839 14.5639 7.4572L14.5596 1.18556Z" fill="white"/>
<path d="M92.9118 1.18556H91.1674V13.79H92.9118V1.18556Z" fill="white"/>
<path d="M68.2806 12.295C67.799 12.295 67.4084 12.6909 67.4084 13.1795C67.4084 13.6681 67.799 14.064 68.2806 14.064C68.7621 14.064 69.1527 13.6681 69.1527 13.1795C69.1527 12.6909 68.7621 12.295 68.2806 12.295Z" fill="white"/>
<path d="M9.42362 3.50558L10.2929 1.97408C8.95367 0.948307 7.26144 0.5 5.59389 0.5C3.3016 0.5 0.539162 1.55636 0.539162 4.2888C0.539162 7.16577 3.32714 7.74888 5.57922 8.17918C6.71526 8.39559 8.81128 8.63613 8.81128 10.2223C8.81128 11.9962 6.80809 12.2701 5.45044 12.2701C3.75121 12.2701 2.15507 11.6755 0.869811 10.5689L0 12.1013C1.43824 13.4516 3.47595 13.9869 5.40263 13.9869C7.73226 13.9869 10.6486 13.0249 10.6486 10.1981C10.6486 7.72207 8.37262 6.95361 6.37864 6.55521C5.0684 6.30057 2.3765 6.15378 2.3765 4.26458C2.3765 2.59955 4.25048 2.21676 5.56998 2.21676C6.99445 2.21676 8.28061 2.6635 9.42362 3.50558Z" fill="white"/>
</svg>
