<svg width="339" height="124" viewBox="0 0 339 124" fill="none" xmlns="http://www.w3.org/2000/svg">
<path opacity="0.1" d="M-235.942 111.263C-181.46 72.4628 -139.62 3.74594 -72.8519 0.337827C-6.45326 -3.05144 38.1838 67.8295 99.2075 94.1552C176.656 127.567 304.768 96.8251 334.133 175.912C365.037 259.146 230.856 322.355 216.484 410.014C204.277 484.471 297.217 562.49 259.989 628.136C223.665 692.19 122.958 670.885 53.9695 696.587C-6.69775 719.19 -57.5017 774.79 -122.072 770.477C-186.613 766.166 -240.507 719.338 -286.463 673.848C-327.527 633.2 -331.242 568.233 -369.833 525.23C-428.094 460.308 -568.03 447.931 -567.521 360.653C-567.028 276.01 -435.669 261.424 -367.999 210.528C-323.227 176.853 -281.575 143.76 -235.942 111.263Z" fill="#4858E5"/>
</svg>
