<svg width="402" height="393" viewBox="0 0 402 393" fill="none" xmlns="http://www.w3.org/2000/svg">
<rect x="1.21762" y="0.195801" width="400" height="392" rx="10" fill="#D85988"/>
<mask id="mask0" mask-type="alpha" maskUnits="userSpaceOnUse" x="0" y="0" width="401" height="393">
<rect x="0.217621" y="0.195801" width="400" height="392" rx="10" fill="#D85988"/>
</mask>
<g mask="url(#mask0)">
<path opacity="0.4" d="M352.276 -287.542C406.759 -326.342 448.599 -395.059 515.366 -398.467C581.765 -401.856 626.402 -330.975 687.426 -304.649C764.875 -271.238 892.987 -301.979 922.351 -222.892C953.255 -139.659 819.074 -76.4494 804.702 11.2097C792.495 85.6661 885.435 163.686 848.208 229.332C811.883 293.386 711.177 272.081 642.188 297.783C581.521 320.385 530.717 375.985 466.146 371.672C401.606 367.361 347.712 320.533 301.756 275.043C260.692 234.396 256.976 169.429 218.385 126.425C160.125 61.5031 20.1888 49.1269 20.6973 -38.1519C21.1905 -122.794 152.549 -137.38 220.219 -188.277C264.991 -221.951 306.643 -255.044 352.276 -287.542Z" fill="#B73E6B"/>
<path opacity="0.4" d="M341.276 -267.542C395.759 -306.342 437.599 -375.059 504.366 -378.467C570.765 -381.856 615.402 -310.975 676.426 -284.649C753.875 -251.238 881.987 -281.979 911.351 -202.892C942.255 -119.659 808.074 -56.4494 793.702 31.2097C781.495 105.666 874.435 183.686 837.208 249.332C800.883 313.386 700.177 292.081 631.188 317.783C570.521 340.385 519.717 395.985 455.146 391.672C390.606 387.361 336.712 340.533 290.756 295.043C249.692 254.396 245.976 189.429 207.385 146.425C149.125 81.5031 9.18876 69.1269 9.6973 -18.1519C10.1905 -102.794 141.549 -117.38 209.219 -168.277C253.991 -201.951 295.643 -235.044 341.276 -267.542Z" fill="#B73E6B"/>
</g>
</svg>
