<svg width="684" height="643" viewBox="0 0 684 643" fill="none" xmlns="http://www.w3.org/2000/svg">
<path opacity="0.3" d="M0.0232937 66.9994C6.55329 36.7294 31.1433 12.5694 60.3433 3.55937C90.5933 -5.77063 122.343 3.65937 143.543 26.9494C163.993 49.4394 173.643 82.9494 162.463 112.049C152.003 139.269 122.173 162.919 92.3533 149.779C67.1733 138.679 52.4533 105.779 63.4433 80.0794C74.4333 54.3794 105.193 41.8894 131.753 46.5894C165.263 52.5294 183.753 85.0894 193.123 114.859C204.543 150.919 206.223 192.929 232.503 222.469C253.223 245.759 285.503 257.179 316.333 254.859C331.783 253.798 346.724 248.9 359.803 240.609C373.993 231.439 386.143 215.789 387.803 198.529C389.653 179.329 374.923 165.529 356.433 164.139C336.103 162.629 318.333 174.949 302.903 186.659C273.443 209.029 244.113 237.659 235.033 274.819C227.033 307.729 236.093 347.309 267.423 364.759C302.943 384.539 345.333 370.459 376.673 349.489C393.673 338.109 409.183 324.579 424.673 311.259C440.423 297.719 456.093 284.059 472.483 271.259C503.563 247.039 537.673 225.909 576.413 216.799C612.753 208.249 651.833 210.799 684.023 230.969C714.023 249.709 735.193 279.969 748.763 312.149C765.763 352.349 772.443 396.049 780.583 438.649L806.703 575.289L819.223 640.809C819.493 642.219 817.333 642.809 817.053 641.409L791.243 506.409C782.853 462.489 775.423 418.259 765.583 374.639C756.813 335.809 744.043 296.859 718.773 265.429C707.583 251.509 694.153 239.269 678.593 230.379C661.596 220.836 642.597 215.414 623.123 214.549C538.413 210.199 473.503 272.939 413.613 323.669C385.073 347.829 353.293 372.669 314.613 375.989C297.893 377.439 280.413 374.789 265.703 366.399C252.43 358.67 242.123 346.723 236.423 332.459C223.773 301.679 230.643 267.009 248.073 239.629C257.843 224.329 270.423 210.999 284.023 199.099C297.923 186.949 313.193 174.239 330.243 166.859C344.763 160.579 362.653 159.149 376.313 168.409C388.513 176.689 392.373 191.349 388.883 205.219C381.283 235.429 350.693 252.879 321.633 256.569C292.813 260.219 262.263 251.789 240.023 232.949C211.733 208.949 204.943 171.489 196.803 137.239C189.103 104.799 176.113 64.9694 141.923 51.7394C114.613 41.1694 78.4233 52.5094 65.9233 80.0094C53.2733 107.789 72.9233 145.649 103.213 150.729C139.513 156.829 165.313 117.169 164.943 85.1194C164.573 53.0694 143.943 21.7294 114.723 8.51937C84.3033 -5.21063 48.3033 4.42937 24.9633 27.1594C13.5655 38.0932 5.654 52.1522 2.22329 67.5694C1.91329 68.9994 -0.246706 68.3794 0.0232937 66.9994Z" fill="#9A97ED"/>
</svg>
